<?xml version="1.0" encoding="utf-8"?>
<!-- Generator: Adobe Illustrator 24.2.3, SVG Export Plug-In . SVG Version: 6.00 Build 0)  -->
<svg version="1.1" id="Layer_1" xmlns="http://www.w3.org/2000/svg" xmlns:xlink="http://www.w3.org/1999/xlink" x="0px" y="0px"
	 viewBox="0 0 1163 274.79" style="enable-background:new 0 0 1163 274.79;" xml:space="preserve">
<style type="text/css">
	.st0{fill:#FFC625;}
</style>
<g>
	<g>
		<path class="st0" d="M394.4,157.21c-2.81,0.7-5.97,1.05-8.95,1.05c-1.93,0-3.69-0.18-5.44-0.35v8.25l-2.28,4.04h19.13l-2.46-4.04
			V157.21z"/>
		<path class="st0" d="M477.3,180.38c-2.28-1.23-4.04-3.33-5.09-5.97c-0.18-0.35-0.18-0.7-0.35-1.05l-15.44-56.86l6.49-4.56
			c0.7-0.53,1.4-1.05,2.11-1.58c4.91-4.57,7.72-10.88,7.72-17.55c0-6.49-2.63-12.46-7.02-16.67c-4.21-4.21-10-6.84-16.5-6.84h-7.78
			l-18.08,0l-14.39,29.31L394.4,69.28l-17.37,0c-0.18,0-0.35,0-0.53,0.17c-8.07,1.58-15.62,5.62-21.59,11.58
			c-8.07,8.25-12.64,18.95-12.64,30.54c0,11.58,4.56,22.29,12.64,30.54c6.84,6.85,15.62,11.06,25.1,12.29
			c1.75,0.18,3.51,0.35,5.44,0.35c2.98,0,6.14-0.35,8.95-1.05c6.49-1.4,12.46-4.21,17.55-8.25l-6.5-12.81
			c-3.16,2.98-6.84,5.27-11.06,6.49c-2.81,1.05-5.79,1.58-8.95,1.58c-1.93,0-3.69-0.18-5.44-0.53
			c-13.51-2.63-23.69-14.39-23.69-28.61c0-14.22,10.18-25.98,23.69-28.61l0,53.71c1.75,0.35,3.51,0.53,5.44,0.53
			c3.16,0,6.14-0.53,8.95-1.58l0-38.79l14.57,30.19l14.39-30.19l0,69.33l-2.28,4.04h0.59h18.54l-2.39-4.04v-36.33l6.67-4.74
			c0,0,14.39,52.48,14.57,52.83c0.17,0.53,0.35,1.05,0.53,1.58c0.35,0.88,0.7,1.58,1.05,2.46c0.53,0.7,0.88,1.58,1.4,2.28
			c2.11,3.33,5.09,5.97,8.6,8.07c4.21,2.28,8.78,3.51,13.52,3.51l1.05-13.69C482.56,182.48,479.76,181.78,477.3,180.38z
			 M454.66,99.82h-0.18l-16.67,11.41l0-28.08l11.93,0c4.91,0,8.95,4.04,8.95,8.95c0,1.58-0.35,3.16-1.05,4.39
			C456.94,97.88,455.89,98.94,454.66,99.82z"/>
	</g>
	<path d="M537.33,69.28h-29.75l4.93,8.62v83.78l-4.93,8.62h29.75c11.62,0,20.95-9.33,20.95-20.95V90.4
		C558.28,78.78,548.95,69.28,537.33,69.28z M543.85,144.79c0,6.16-4.93,11.09-11.27,11.09h-5.98V83.54h5.98
		c6.34,0,11.27,5.1,11.27,11.27V144.79z"/>
	<path d="M614.72,151.65l-7.39,4.4h-0.04v2.29c0.04,4.33,1.03,8.44,2.76,12.14h4.67V151.65z"/>
	<path d="M560.92,170.49h25c-0.74-2.93-1.22-5.94-1.41-9l0-0.51c0-0.78,0-1.51-0.13-2.14l-0.56-2.78h-4.6v-29.04h17.95l8.45-14.43
		h-26.4V83.71h26.58l7.57,4.4V69.28h-52.45l4.05,7.04v86.95L560.92,170.49z"/>
	<polygon points="702.06,166.97 704,170.49 685.87,170.49 687.81,166.97 687.81,72.62 685.87,69.28 704,69.28 702.06,72.62 	"/>
	<path d="M771.98,179.64l-1.41,14.43c-7.04-0.35-13.73-3.34-18.83-8.27c-3.7-3.7-6.16-8.45-7.22-13.38
		c-0.35-1.41-0.53-2.82-0.53-4.4c-3.34,1.58-7.04,2.29-10.91,2.29l0,0c-13.91,0-25.17-10.56-25.17-23.59V92.87
		c0-13.03,11.27-23.59,25.17-23.59l0,0c14.08,0,25.35,10.56,25.35,23.59v13.73h-16.55h-5.1l5.1-9.68v-4.22c0-4.93-4.22-8.8-9.33-8.8
		l0,0c-5.1,0-9.33,3.87-9.33,8.8v54.21c0,4.93,4.22,8.8,9.33,8.8l0,0c5.1,0,9.33-3.87,9.33-8.8v-10.03h-5.46l-8.27-14.43h30.27
		v44.36c0,0.35,0,0.7,0,1.23c0.35,2.82,1.58,5.46,3.52,7.57C764.58,178.23,768.1,179.64,771.98,179.64z"/>
	<polygon points="817.21,166.44 819.5,170.49 800.31,170.49 802.6,166.44 802.6,150.95 781.3,102.19 781.3,166.26 783.77,170.49 
		764.58,170.49 766.87,166.44 766.87,75.62 763.17,69.28 781.3,69.28 802.6,116.63 802.6,69.28 820.73,69.28 817.21,75.62 	"/>
	<path d="M668.94,124.9c8.98,8.8,13.91,20.77,13.91,33.27c0,12.67-4.93,24.64-13.91,33.44c-8.98,8.98-20.77,13.91-33.44,13.91
		c-12.67,0-24.47-4.93-33.44-13.91c-8.1-8.1-13.03-18.83-13.73-30.27v-0.35c0-0.88,0-1.76-0.18-2.64h0.18V155
		c0-16.72,13.55-30.28,30.28-30.28h2.11c8.45,0,16.37,3.34,22.35,9.33s9.33,13.91,9.33,22.35v11.79h-15.14v-11.79
		c0-4.4-1.76-8.62-4.75-11.79c-3.17-2.99-7.39-4.75-11.79-4.75h-2.11c-8.45,0-15.14,6.86-15.14,15.14v3.34l0,0
		c0.18,17.6,14.43,31.86,32.04,31.86c16.02,0,29.22-11.62,31.51-26.93c0.35-1.58,0.53-3.34,0.53-5.1c0-0.18,0-0.53,0-0.88v-0.18
		c-0.18-0.35-0.18-0.53-0.18-0.88c0-0.18,0-0.18,0-0.18c0-0.35,0-0.7,0-0.88c0-0.18,0-0.18,0-0.18c0-0.35-0.18-0.7-0.18-0.88
		s0-0.18,0-0.18c0-0.35-0.18-0.7-0.18-1.06l0,0c0-0.35-0.18-0.7-0.18-1.06l0,0c0-0.35-0.18-0.7-0.18-0.88l0,0
		c-0.18-0.35-0.18-0.7-0.35-1.06l0,0c0-0.35-0.18-0.7-0.18-0.88c0-0.18,0-0.18,0-0.18c-0.18-0.35-0.18-0.53-0.35-0.88v-0.18
		c-0.18-0.18-0.18-0.53-0.35-0.88l0,0c-0.18-0.35-0.35-0.7-0.35-0.88c0,0,0,0,0-0.18c-0.18-0.18-0.35-0.53-0.53-0.88l0,0
		c0-0.18-0.18-0.53-0.35-0.88l0,0c-0.18-0.35-0.35-0.53-0.53-0.88l0,0c-0.18-0.35-0.35-0.53-0.35-0.88c-0.18,0-0.18,0-0.18,0
		c-0.18-0.35-0.35-0.53-0.35-0.88c-0.18,0-0.18,0-0.18,0c-0.18-0.35-0.35-0.53-0.53-0.88l0,0c-0.18-0.35-0.35-0.53-0.53-0.88l0,0
		c-0.53-0.7-1.23-1.58-1.94-2.29l0,0c-0.18-0.35-0.35-0.53-0.53-0.7l-0.18-0.18c-0.18-0.18-0.35-0.35-0.53-0.7c0,0,0,0-0.18,0
		c-0.18-0.18-0.35-0.35-0.53-0.7c-0.18,0-0.18,0-0.18,0c-0.88-0.88-1.94-1.76-2.99-2.46v-0.18c-0.35-0.18-0.53-0.35-0.88-0.53l0,0
		c-0.18-0.18-0.53-0.35-0.7-0.53c-0.18,0-0.18,0-0.18,0c-0.18-0.18-0.53-0.35-0.7-0.53c-0.88-0.53-1.58-0.88-2.46-1.23l-7.04-5.1
		l-8.27-5.81c-2.64-1.94-4.93-4.4-6.69-7.04c-2.99-4.58-4.58-9.86-4.58-15.49c0-14.79,11.44-26.93,25.7-26.93h23.41V89.7l-8.8-5.1
		H648.7c-5.98,0-10.74,5.28-10.74,11.62c0,4.05,1.94,7.57,4.93,9.86l12.85,8.98v0.18l1.58,1.06
		C661.55,118.56,665.42,121.38,668.94,124.9z"/>
</g>
</svg>
