<?xml version="1.0" encoding="utf-8"?>
<!-- Generator: Adobe Illustrator 24.2.3, SVG Export Plug-In . SVG Version: 6.00 Build 0)  -->
<svg version="1.1" id="Layer_1" xmlns="http://www.w3.org/2000/svg" xmlns:xlink="http://www.w3.org/1999/xlink" x="0px" y="0px"
	 viewBox="0 0 612 792" style="enable-background:new 0 0 612 792;" xml:space="preserve">
<style type="text/css">
	.st0{fill:#FFFFFF;}
</style>
<g>
	<path class="st0" d="M240.88,478.57c-9.41,2.33-19.98,3.54-29.95,3.54c-6.47,0-12.34-0.6-18.21-1.17v27.62l-7.64,13.51h64.04
		l-8.24-13.51V478.57z"/>
	<path class="st0" d="M518.5,556.12c-7.64-4.1-13.51-11.18-17.05-19.98c-0.6-1.17-0.6-2.33-1.17-3.54l-51.7-190.44l21.75-15.28
		c2.33-1.77,4.7-3.54,7.03-5.26c16.44-15.28,25.85-36.42,25.85-58.78c0-21.75-8.8-41.73-23.52-55.84
		c-14.11-14.11-33.49-22.92-55.24-22.92H398.4h-60.55l-48.2,98.14l-48.77-98.14h-58.17c-0.6,0-1.17,0-1.77,0.56
		c-27.02,5.31-52.3,18.82-72.29,38.8c-27.06,27.62-42.34,63.48-42.34,102.28c0,38.8,15.28,74.66,42.34,102.28
		c22.92,22.92,52.3,37.03,84.07,41.13c5.87,0.6,11.74,1.17,18.21,1.17c9.97,0,20.59-1.17,29.95-3.54
		c21.75-4.7,41.73-14.11,58.78-27.62l-21.75-42.9c-10.57,9.97-22.92,17.65-37.03,21.75c-9.41,3.54-19.38,5.31-29.95,5.31
		c-6.47,0-12.34-0.6-18.21-1.77c-45.27-8.8-79.36-48.2-79.36-95.81s34.09-87,79.36-95.81v179.83c5.87,1.17,11.74,1.77,18.21,1.77
		c10.57,0,20.59-1.77,29.95-5.31V276.3l48.77,101.07l48.2-101.07v232.18l-7.64,13.51h1.99h62.1l-8.03-13.51V386.82l22.35-15.88
		c0,0,48.2,175.73,48.77,176.89c0.56,1.77,1.17,3.54,1.77,5.31c1.17,2.93,2.33,5.31,3.54,8.24c1.77,2.33,2.93,5.31,4.7,7.64
		c7.03,11.18,17.05,19.98,28.78,27.06c14.11,7.64,29.39,11.74,45.27,11.74l3.54-45.83C536.15,563.19,526.75,560.82,518.5,556.12z
		 M442.72,286.35h-0.6l-55.84,38.19v-94.04h39.96c16.44,0,29.95,13.51,29.95,29.95c0,5.31-1.17,10.57-3.54,14.72
		C450.36,279.88,446.82,283.42,442.72,286.35z"/>
</g>
</svg>
