<?xml version="1.0" encoding="utf-8"?>
<!-- Generator: Adobe Illustrator 24.2.3, SVG Export Plug-In . SVG Version: 6.00 Build 0)  -->
<svg version="1.1" id="Layer_1" xmlns="http://www.w3.org/2000/svg" xmlns:xlink="http://www.w3.org/1999/xlink" x="0px" y="0px"
	 viewBox="0 0 612 792" style="enable-background:new 0 0 612 792;" xml:space="preserve">
<style type="text/css">
	.st0{fill:#FFC107;}
</style>
<g>
	<path class="st0" d="M240.9,478.6c-9.4,2.3-20,3.5-29.9,3.5c-6.5,0-12.3-0.6-18.2-1.2v27.6l-7.6,13.5h64l-8.2-13.5L240.9,478.6
		L240.9,478.6z"/>
	<path class="st0" d="M518.5,556.1c-7.6-4.1-13.5-11.2-17-20c-0.6-1.2-0.6-2.3-1.2-3.5l-51.7-190.4l21.8-15.3c2.3-1.8,4.7-3.5,7-5.3
		c16.4-15.3,25.9-36.4,25.9-58.8c0-21.8-8.8-41.7-23.5-55.8c-14.1-14.1-33.5-22.9-55.2-22.9h-26.1h-60.5l-48.2,98.1l-48.8-98.1
		h-58.2c-0.6,0-1.2,0-1.8,0.6c-27,5.3-52.3,18.8-72.3,38.8c-27.1,27.6-42.3,63.5-42.3,102.3s15.3,74.7,42.3,102.3
		c22.9,22.9,52.3,37,84.1,41.1c5.9,0.6,11.7,1.2,18.2,1.2c10,0,20.6-1.2,29.9-3.5c21.7-4.7,41.7-14.1,58.8-27.6l-21.8-42.9
		c-10.6,10-22.9,17.6-37,21.8c-9.4,3.5-19.4,5.3-29.9,5.3c-6.5,0-12.3-0.6-18.2-1.8c-45.3-8.8-79.4-48.2-79.4-95.8
		s34.1-87,79.4-95.8v179.8c5.9,1.2,11.7,1.8,18.2,1.8c10.6,0,20.6-1.8,29.9-5.3V276.3l48.8,101.1l48.2-101.1v232.2l-7.6,13.5h2h62.1
		l-8-13.5V386.8l22.4-15.9c0,0,48.2,175.7,48.8,176.9c0.6,1.8,1.2,3.5,1.8,5.3c1.2,2.9,2.3,5.3,3.5,8.2c1.8,2.3,2.9,5.3,4.7,7.6
		c7,11.2,17,20,28.8,27.1c14.1,7.6,29.4,11.7,45.3,11.7L545,562C536.2,563.2,526.8,560.8,518.5,556.1z M442.7,286.4h-0.6l-55.8,38.2
		v-94h40c16.4,0,30,13.5,30,30c0,5.3-1.2,10.6-3.5,14.7C450.4,279.9,446.8,283.4,442.7,286.4z"/>
</g>
</svg>
