<?xml version="1.0" encoding="utf-8"?>
<!-- Generator: Adobe Illustrator 24.2.3, SVG Export Plug-In . SVG Version: 6.00 Build 0)  -->
<svg version="1.1" xmlns="http://www.w3.org/2000/svg" xmlns:xlink="http://www.w3.org/1999/xlink" x="0px" y="0px"
	 viewBox="0 0 2160 2795.33" style="enable-background:new 0 0 2160 2795.33;" xml:space="preserve">
<style type="text/css">
	.st0{fill:#2BFFDC;}
	.st1{fill:#8F6C56;}
	.st2{fill:#FCD8D1;}
	.st3{fill:#FCDD7C;stroke:#8F6C56;stroke-width:2.1147;stroke-linejoin:round;stroke-miterlimit:10;}
	.st4{fill:#E7685D;stroke:#8F6C56;stroke-width:2.1147;stroke-linejoin:round;stroke-miterlimit:10;}
	.st5{fill:#F4ECCE;stroke:#8F6C56;stroke-width:2.1147;stroke-linejoin:round;stroke-miterlimit:10;}
	.st6{opacity:0.1;fill:#231F20;}
	.st7{fill:#FFDE17;stroke:#231F20;stroke-width:1.7007;stroke-linejoin:round;stroke-miterlimit:10;}
	.st8{fill:url(#);stroke:#231F20;stroke-width:1.7007;stroke-linejoin:round;stroke-miterlimit:10;}
	.st9{fill:#414042;stroke:#231F20;stroke-width:1.7007;stroke-linejoin:round;stroke-miterlimit:10;}
	.st10{enable-background:new    ;}
	.st11{clip-path:url(#SVGID_2_);enable-background:new    ;}
	.st12{fill:#FF672B;stroke:#231F20;stroke-width:1.7007;stroke-linejoin:round;stroke-miterlimit:10;}
	.st13{opacity:0.1;}
	.st14{fill:#231F20;}
	.st15{fill:#414042;stroke:#231F20;stroke-width:5.3521;stroke-linejoin:round;stroke-miterlimit:10;}
	.st16{fill:#FFDE17;stroke:#231F20;stroke-width:5.3521;stroke-linejoin:round;stroke-miterlimit:10;}
	.st17{clip-path:url(#SVGID_4_);enable-background:new    ;}
	.st18{fill:#FF672B;stroke:#231F20;stroke-width:5.3521;stroke-linejoin:round;stroke-miterlimit:10;}
	.st19{fill:#FF672B;stroke:#231F20;stroke-width:2.429;stroke-linejoin:round;stroke-miterlimit:10;}
	.st20{fill:#414042;stroke:#231F20;stroke-width:2.429;stroke-linejoin:round;stroke-miterlimit:10;}
	.st21{fill:#FFDE17;stroke:#231F20;stroke-width:2.429;stroke-linejoin:round;stroke-miterlimit:10;}
	.st22{fill:#231F20;stroke:#231F20;stroke-width:2.429;stroke-linejoin:round;stroke-miterlimit:10;}
	.st23{fill:#FFFFFF;stroke:#231F20;stroke-width:2.429;stroke-linejoin:round;stroke-miterlimit:10;}
	.st24{fill:#FF672B;stroke:#231F20;stroke-linejoin:round;stroke-miterlimit:10;}
	.st25{fill:#E7685D;stroke:#000000;stroke-linejoin:round;stroke-miterlimit:10;}
	.st26{fill:#FCD8D1;stroke:#000000;stroke-linejoin:round;stroke-miterlimit:10;}
	.st27{clip-path:url(#SVGID_6_);enable-background:new    ;}
	.st28{fill:#FCDD7C;stroke:#000000;stroke-linejoin:round;stroke-miterlimit:10;}
	.st29{clip-path:url(#SVGID_8_);enable-background:new    ;}
	.st30{clip-path:url(#SVGID_10_);enable-background:new    ;}
	.st31{fill:#FCDD7C;stroke:#8F6C56;stroke-width:1.8092;stroke-linejoin:round;stroke-miterlimit:10;}
	.st32{fill:#F4ECCE;stroke:#8F6C56;stroke-width:1.8092;stroke-linejoin:round;stroke-miterlimit:10;}
	.st33{fill:#E7685D;stroke:#8F6C56;stroke-width:1.8092;stroke-linejoin:round;stroke-miterlimit:10;}
	.st34{fill:#231F20;stroke:#231F20;stroke-miterlimit:10;}
</style>
<g id="background">
	<rect class="st0" width="2160" height="2795.33"/>
</g>
<g id="Layer_1">
	<g>
		<g class="st13">
			<path class="st14" d="M911.43,1414.86l242.13-70.48l-30.1-17.38l-0.73,0.22l-0.38-0.22l-0.73,0.22l-0.38-0.22l-0.73,0.22
				l-0.38-0.22l-0.73,0.22l-0.38-0.22l-0.73,0.22l-0.38-0.22l-0.73,0.22l-0.38-0.22l-0.73,0.22l-0.38-0.22l-0.73,0.22l-0.38-0.22
				l-0.73,0.22l-0.38-0.22l-0.73,0.22l-0.38-0.22l-0.73,0.22l-0.38-0.22l-0.73,0.22l-0.38-0.22l-0.73,0.22l-0.38-0.22l-0.73,0.22
				l-0.38-0.22l-0.73,0.22l-0.38-0.22l-0.73,0.22l-0.38-0.22l-0.73,0.22l-0.38-0.22l-0.73,0.22l-0.38-0.22l-0.73,0.22l-0.38-0.22
				l-0.73,0.22l-0.38-0.22l-0.73,0.22l-0.38-0.22l-0.73,0.22l-0.38-0.22l-0.73,0.22l-0.38-0.22l-0.73,0.22l-0.38-0.22l-0.73,0.22
				l-0.38-0.22l-0.73,0.22l-0.38-0.22l-0.73,0.22l-0.38-0.22l-0.73,0.22l-0.38-0.22l-0.73,0.22l-0.38-0.22l-0.73,0.22l-0.38-0.22
				l-0.73,0.22l-0.38-0.22l-0.73,0.22l-0.38-0.22l-0.73,0.22l-0.38-0.22l-0.73,0.22l-0.38-0.22l-0.73,0.22l-0.38-0.22l-0.73,0.22
				l-0.38-0.22l-0.73,0.22l-0.38-0.22l-0.73,0.22l-0.38-0.22l-0.73,0.22l-0.38-0.22l-0.73,0.22l-0.38-0.22l-0.73,0.22l-0.38-0.22
				l-0.73,0.22l-0.38-0.22l-0.73,0.22l-0.38-0.22l-0.73,0.22l-0.38-0.22l-0.73,0.22l-0.38-0.22l-0.73,0.22l-0.38-0.22l-0.73,0.22
				l-0.38-0.22l-0.73,0.22l-0.38-0.22l-0.73,0.22l-0.38-0.22l-0.73,0.22l-0.38-0.22l-0.73,0.22l-0.38-0.22l-0.73,0.22l-0.38-0.22
				l-0.73,0.22l-0.38-0.22l-0.73,0.22l-0.38-0.22l-0.73,0.22l-0.38-0.22l-0.73,0.22l-0.38-0.22l-0.73,0.22l-0.38-0.22l-0.73,0.22
				l-0.38-0.22l-0.73,0.22l-0.38-0.22l-0.73,0.22l-0.38-0.22l-0.73,0.22l-0.38-0.22l-0.73,0.22l-0.38-0.22l-0.73,0.22l-0.38-0.22
				l-0.73,0.22l-0.38-0.22l-0.73,0.22l-0.38-0.22l-0.73,0.22l-0.38-0.22l-0.73,0.22l-0.38-0.22l-0.73,0.22l-0.38-0.22l-0.73,0.22
				l-0.38-0.22l-0.73,0.22l-0.38-0.22l-0.73,0.22l-0.38-0.22l-0.73,0.22l-0.38-0.22l-0.73,0.22l-0.38-0.22l-0.73,0.22l-0.38-0.22
				l-0.73,0.22l-0.38-0.22l-0.73,0.22l-0.38-0.22l-0.73,0.22l-0.38-0.22l-0.73,0.22l-0.38-0.22l-0.73,0.22l-0.38-0.22l-0.73,0.22
				l-0.38-0.22l-0.73,0.22l-0.38-0.22l-0.73,0.22l-0.38-0.22l-0.73,0.22l-0.38-0.22l-0.73,0.22l-0.38-0.22l-0.73,0.22l-0.38-0.22
				l-0.73,0.22l-0.38-0.22l-0.73,0.22l-0.38-0.22l-0.73,0.22l-0.38-0.22l-0.73,0.22l-0.38-0.22l-0.73,0.22l-0.38-0.22l-0.73,0.22
				l-0.38-0.22l-0.73,0.22l-0.38-0.22l-0.73,0.22l-0.38-0.22l-0.73,0.22l-0.38-0.22l-0.73,0.22l-0.38-0.22l-0.73,0.22l-0.38-0.22
				l-0.73,0.22l-0.38-0.22l-0.73,0.22l-0.38-0.22l-0.73,0.22l-0.38-0.22l-0.73,0.22l-0.38-0.22l-0.73,0.22l-0.38-0.22l-0.73,0.22
				l-0.38-0.22l-0.73,0.22l-0.38-0.22l-0.73,0.22l-0.38-0.22l-0.73,0.22l-0.38-0.22l-0.73,0.22l-0.38-0.22l-0.73,0.22l-0.38-0.22
				l-0.73,0.22l-0.38-0.22l-0.73,0.22l-0.38-0.22l-0.73,0.22l-0.38-0.22l-0.73,0.22l-0.38-0.22l-0.73,0.22l-0.38-0.22l-0.73,0.22
				l-0.38-0.22l-0.73,0.22l-0.38-0.22l-0.73,0.22l-0.38-0.22l-0.73,0.22l-0.38-0.22l-0.73,0.22l-0.38-0.22l-0.73,0.22l-0.38-0.22
				l-0.73,0.22l-0.38-0.22l-0.73,0.22l-0.38-0.22l-0.73,0.22l-0.38-0.22l-1.36,0.41l46.15-51.86l-32.94-19.02l-0.37,0.43l-0.74-0.43
				l-0.37,0.43l-0.74-0.43l-0.37,0.43l-0.74-0.43l-0.37,0.43l-0.74-0.43l-0.37,0.43l-0.74-0.43l-0.37,0.43l-0.74-0.43l-0.37,0.43
				l-0.74-0.43l-0.37,0.43l-0.74-0.43l-0.37,0.43l-0.74-0.43l-0.37,0.43l-0.74-0.43l-0.37,0.43l-0.74-0.43l-0.37,0.43l-0.74-0.43
				l-0.37,0.43l-0.74-0.43l-0.37,0.43l-0.74-0.43l-0.37,0.43l-0.74-0.43l-0.37,0.43l-0.74-0.43l-0.37,0.43l-0.74-0.43l-0.37,0.43
				l-0.74-0.43l-0.37,0.43l-0.74-0.43l-0.37,0.43l-0.74-0.43l-0.37,0.43l-0.74-0.43l-0.37,0.43l-0.74-0.43l-0.37,0.43l-0.74-0.43
				l-0.37,0.43l-0.74-0.43l-0.37,0.43l-0.74-0.43l-0.37,0.43l-0.74-0.43l-0.37,0.43l-0.74-0.43l-0.37,0.43l-0.74-0.43l-0.37,0.43
				l-0.74-0.43l-0.37,0.43l-0.74-0.43l-0.37,0.43l-0.74-0.43l-0.37,0.43l-0.74-0.43l-0.37,0.43l-0.74-0.43l-0.37,0.43l-0.74-0.43
				l-0.37,0.43l-0.74-0.43l-0.37,0.43l-0.74-0.43l-0.37,0.43l-0.74-0.43l-0.37,0.43l-0.74-0.43l-0.37,0.43l-0.74-0.43l-0.37,0.43
				l-0.74-0.43l-0.37,0.43l-0.74-0.43l-0.37,0.43l-0.74-0.43l-0.37,0.43l-0.74-0.43l-0.37,0.43l-0.74-0.43l-0.37,0.43l-0.74-0.43
				l-0.37,0.43l-0.74-0.43l-0.37,0.43l-0.74-0.43l-0.37,0.43l-0.74-0.43l-0.37,0.43l-0.74-0.43l-0.37,0.43l-0.74-0.43l-0.37,0.43
				l-0.74-0.43l-0.37,0.43l-0.74-0.43l-0.37,0.43l-0.74-0.43l-0.37,0.43l-0.74-0.43l-0.37,0.43l-0.74-0.43l-0.37,0.43l-0.74-0.43
				l-0.37,0.43l-0.74-0.43l-0.37,0.43l-0.74-0.43l-0.37,0.43l-0.74-0.43l-0.37,0.43l-0.74-0.43l-0.37,0.43l-0.74-0.43l-0.37,0.43
				l-0.74-0.43l-0.37,0.43l-0.74-0.43l-0.37,0.43l-0.74-0.43l-0.37,0.43l-0.74-0.43l-0.37,0.43l-0.74-0.43l-0.37,0.43l-0.74-0.43
				l-0.37,0.43l-0.74-0.43l-0.37,0.43l-0.74-0.43l-0.37,0.43l-0.74-0.43l-0.37,0.43l-0.74-0.43l-0.37,0.43l-0.74-0.43l-0.37,0.43
				l-0.74-0.43l-0.37,0.43l-0.74-0.43l-0.37,0.43l-0.74-0.43l-0.37,0.43l-0.74-0.43l-0.37,0.43l-0.74-0.43l-0.37,0.43l-0.74-0.43
				l-0.37,0.43l-0.74-0.43l-0.37,0.43l-0.74-0.43l-0.37,0.43l-0.74-0.43l-0.37,0.43l-0.74-0.43l-0.37,0.43l-0.74-0.43l-0.37,0.43
				l-0.74-0.43l-0.37,0.43l-0.74-0.43l-0.37,0.43l-0.74-0.43l-0.37,0.43l-0.74-0.43l-0.37,0.43l-0.74-0.43l-0.37,0.43l-0.74-0.43
				l-0.37,0.43l-0.74-0.43l-0.37,0.43l-0.74-0.43l-0.37,0.43l-0.74-0.43l-0.37,0.43l-0.74-0.43l-0.37,0.43l-0.74-0.43l-0.37,0.43
				l-0.74-0.43l-0.37,0.43l-0.74-0.43l-0.37,0.43l-0.74-0.43l-0.37,0.43l-0.74-0.43l-0.37,0.43l-0.74-0.43l-0.37,0.43l-0.74-0.43
				l-0.37,0.43l-0.74-0.43l-0.37,0.43l-0.74-0.43l-0.37,0.43l-0.74-0.43l-0.37,0.43l-0.74-0.43l-0.37,0.43l-0.74-0.43l-0.37,0.43
				l-0.2-0.12l47.2-40.48l-45.98-26.55l-0.66,0.26l-0.45-0.26l-0.66,0.26l-0.45-0.26l-0.66,0.26l-0.45-0.26l-0.66,0.26l-0.45-0.26
				l-0.66,0.26l-0.45-0.26l-0.66,0.26l-0.45-0.26l-0.66,0.26l-0.45-0.26l-0.66,0.26l-0.45-0.26l-0.66,0.26l-0.45-0.26l-0.66,0.26
				l-0.45-0.26l-0.66,0.26l-0.45-0.26l-0.66,0.26l-0.45-0.26l-0.66,0.26l-0.45-0.26l-0.66,0.26l-0.45-0.26l-0.66,0.26l-0.45-0.26
				l-0.66,0.26l-0.45-0.26l-0.66,0.26l-0.45-0.26l-0.66,0.26l-0.45-0.26l-0.66,0.26l-0.45-0.26l-0.66,0.26l-0.45-0.26l-0.66,0.26
				l-0.45-0.26l-0.66,0.26l-0.45-0.26l-0.66,0.26l-0.45-0.26l-0.66,0.26l-0.45-0.26l-0.66,0.26l-0.45-0.26l-0.66,0.26l-0.45-0.26
				l-0.66,0.26l-0.45-0.26l-0.66,0.26l-0.45-0.26l-0.66,0.26l-0.45-0.26l-0.66,0.26l-0.45-0.26l-0.66,0.26l-0.45-0.26l-0.66,0.26
				l-0.45-0.26l-0.66,0.26l-0.45-0.26l-0.66,0.26l-0.45-0.26l-0.66,0.26l-0.45-0.26l-0.66,0.26l-0.45-0.26l-0.66,0.26l-0.45-0.26
				l-0.66,0.26l-0.45-0.26l-0.66,0.26l-0.45-0.26l-0.66,0.26l-0.45-0.26l-0.66,0.26l-0.45-0.26l-0.66,0.26l-0.45-0.26l-0.66,0.26
				l-0.45-0.26l-0.66,0.26l-0.45-0.26l-0.66,0.26l-0.45-0.26l-0.66,0.26l-0.45-0.26l-0.66,0.26l-0.45-0.26l-0.66,0.26l-0.45-0.26
				l-0.66,0.26l-0.45-0.26l-0.66,0.26l-0.45-0.26l-0.66,0.26l-0.45-0.26l-0.66,0.26l-0.45-0.26l-0.66,0.26l-0.45-0.26l-0.66,0.26
				l-0.45-0.26l-0.66,0.26l-0.45-0.26l-0.66,0.26l-0.45-0.26l-0.66,0.26l-0.45-0.26l-0.66,0.26l-0.45-0.26l-0.66,0.26l-0.45-0.26
				l-0.66,0.26l-0.45-0.26l-0.66,0.26l-0.45-0.26l-0.66,0.26l-0.45-0.26l-0.66,0.26l-0.45-0.26l-0.66,0.26l-0.45-0.26l-0.66,0.26
				l-0.45-0.26l-0.66,0.26l-0.45-0.26l-0.66,0.26l-0.45-0.26l-0.66,0.26l-0.45-0.26l-0.66,0.26l-0.45-0.26l-0.66,0.26l-0.45-0.26
				l-0.66,0.26l-0.45-0.26l-0.66,0.26l-0.45-0.26l-0.66,0.26l-0.45-0.26l-0.66,0.26l-0.45-0.26l-0.66,0.26l-0.45-0.26l-0.66,0.26
				l-0.45-0.26l-0.66,0.26l-0.45-0.26l-0.66,0.26l-0.45-0.26l-0.66,0.26l-0.45-0.26l-0.66,0.26l-0.45-0.26l-0.66,0.26l-0.45-0.26
				l-0.66,0.26l-0.45-0.26l-0.66,0.26l-0.45-0.26l-0.66,0.26l-0.45-0.26l-0.66,0.26l-0.45-0.26l-0.66,0.26l-0.45-0.26l-0.66,0.26
				l-0.45-0.26l-0.66,0.26l-0.45-0.26l-0.66,0.26l-0.45-0.26l-0.66,0.26l-0.45-0.26l-0.66,0.26l-0.45-0.26l-0.66,0.26l-0.45-0.26
				l-0.66,0.26l-0.45-0.26l-0.66,0.26l-0.45-0.26l-0.66,0.26l-0.45-0.26l-0.66,0.26l-0.45-0.26l-0.66,0.26l-0.45-0.26l-0.66,0.26
				l-0.45-0.26l-0.66,0.26l-0.45-0.26l-0.66,0.26l-0.45-0.26l-0.66,0.26l-0.45-0.26l-0.66,0.26l-0.45-0.26l-0.66,0.26l-0.45-0.26
				l-0.66,0.26l-0.45-0.26l-0.66,0.26l-0.45-0.26l-0.66,0.26l-0.45-0.26l-0.66,0.26l-0.45-0.26l-0.66,0.26l-0.45-0.26l-0.66,0.26
				l-0.45-0.26l-0.66,0.26l-0.45-0.26l-0.66,0.26l-0.45-0.26l-0.66,0.26l-0.45-0.26l-0.66,0.26l-0.45-0.26l-0.66,0.26l-0.45-0.26
				l-0.66,0.26l-0.45-0.26l-0.66,0.26l-0.45-0.26l-0.66,0.26l-0.45-0.26l-0.66,0.26l-0.45-0.26l-0.66,0.26l-0.45-0.26l-0.66,0.26
				l-0.45-0.26l-0.66,0.26l-0.45-0.26L515.4,1283l184.51-107.22l0.3,0.17l0.55-0.32l0.56,0.32l0.55-0.32l0.56,0.32l0.55-0.32
				l0.56,0.32l0.55-0.32l0.56,0.32l0.55-0.32l0.56,0.32l0.55-0.32l0.56,0.32l0.55-0.32l0.56,0.32l0.55-0.32l0.56,0.32l0.55-0.32
				l0.56,0.32l0.55-0.32l0.56,0.32l0.55-0.32l0.56,0.32l0.55-0.32l0.56,0.32l0.55-0.32l0.56,0.32l0.55-0.32l0.56,0.32l0.55-0.32
				l0.56,0.32l0.55-0.32l0.56,0.32l0.55-0.32l0.56,0.32l0.55-0.32l0.56,0.32l0.55-0.32l0.56,0.32l0.55-0.32l0.56,0.32l0.55-0.32
				l0.56,0.32l0.55-0.32l0.56,0.32l0.55-0.32l0.56,0.32l0.55-0.32l0.56,0.32l0.55-0.32l0.56,0.32l0.55-0.32l0.56,0.32l0.55-0.32
				l0.56,0.32l0.55-0.32l0.56,0.32l0.55-0.32l0.56,0.32l0.55-0.32l0.56,0.32l0.55-0.32l0.56,0.32l0.55-0.32l0.56,0.32l0.55-0.32
				l0.56,0.32l0.55-0.32l0.56,0.32l0.55-0.32l0.56,0.32l0.55-0.32l0.56,0.32l0.55-0.32l0.56,0.32l0.55-0.32l0.56,0.32l0.55-0.32
				l0.56,0.32l0.55-0.32l0.56,0.32l0.55-0.32l0.56,0.32l0.55-0.32l0.56,0.32l0.55-0.32l0.56,0.32l0.55-0.32l0.56,0.32l0.55-0.32
				l0.56,0.32l0.55-0.32l0.56,0.32l0.55-0.32l0.56,0.32l0.55-0.32l0.56,0.32l0.55-0.32l0.56,0.32l0.55-0.32l0.56,0.32l0.55-0.32
				l0.56,0.32l0.55-0.32l0.56,0.32l0.55-0.32l0.56,0.32l0.55-0.32l0.56,0.32l0.55-0.32l0.56,0.32l0.55-0.32l0.56,0.32l0.55-0.32
				l0.56,0.32l0.55-0.32l0.56,0.32l0.55-0.32l0.56,0.32l0.55-0.32l0.56,0.32l0.55-0.32l0.56,0.32l0.55-0.32l0.56,0.32l0.55-0.32
				l0.56,0.32l0.55-0.32l0.56,0.32l0.55-0.32l0.56,0.32l0.55-0.32l0.56,0.32l0.55-0.32l0.56,0.32l0.55-0.32l0.56,0.32l0.55-0.32
				l0.56,0.32l0.55-0.32l0.56,0.32l0.55-0.32l0.56,0.32l0.55-0.32l0.56,0.32l0.55-0.32l0.56,0.32l0.55-0.32l0.56,0.32l0.55-0.32
				l0.56,0.32l0.55-0.32l0.56,0.32l0.55-0.32l0.56,0.32l0.55-0.32l0.56,0.32l0.55-0.32l0.56,0.32l0.55-0.32l0.56,0.32l0.55-0.32
				l0.56,0.32l0.55-0.32l0.56,0.32l0.55-0.32l0.56,0.32l0.55-0.32l0.56,0.32l0.55-0.32l0.56,0.32l0.55-0.32l0.56,0.32l0.55-0.32
				l0.56,0.32l0.55-0.32l0.56,0.32l0.55-0.32l0.56,0.32l0.55-0.32l0.56,0.32l0.55-0.32l0.56,0.32l0.55-0.32l0.56,0.32l0.55-0.32
				l0.56,0.32l0.55-0.32l0.56,0.32l28.7-16.68l-136.72-78.94l-0.55,0.32l-0.56-0.32l-0.55,0.32l-0.56-0.32l-0.55,0.32l-0.56-0.32
				l-0.55,0.32l-0.56-0.32l-0.55,0.32l-0.56-0.32l-0.55,0.32l-0.56-0.32l-0.55,0.32l-0.56-0.32l-0.55,0.32l-0.56-0.32l-0.55,0.32
				l-0.56-0.32l-0.55,0.32l-0.56-0.32l-0.55,0.32l-0.56-0.32l-0.55,0.32l-0.56-0.32l-0.55,0.32l-0.56-0.32l-0.55,0.32l-0.56-0.32
				l-0.55,0.32l-0.56-0.32l-0.55,0.32l-0.56-0.32l-0.55,0.32l-0.56-0.32l-0.55,0.32l-0.56-0.32l-0.55,0.32l-0.56-0.32l-0.55,0.32
				l-0.56-0.32l-0.55,0.32l-0.56-0.32l-0.55,0.32l-0.56-0.32l-0.55,0.32l-0.56-0.32l-0.55,0.32l-0.56-0.32l-0.55,0.32l-0.56-0.32
				l-0.55,0.32l-0.56-0.32l-0.55,0.32l-0.56-0.32l-0.55,0.32l-0.56-0.32l-0.55,0.32l-0.56-0.32l-0.55,0.32l-0.56-0.32l-0.55,0.32
				l-0.56-0.32l-0.55,0.32l-0.56-0.32l-0.55,0.32l-0.56-0.32l-0.55,0.32l-0.56-0.32l-0.55,0.32l-0.56-0.32l-0.55,0.32l-0.56-0.32
				l-0.55,0.32l-0.56-0.32l-0.55,0.32l-0.56-0.32l-0.55,0.32l-0.56-0.32l-0.55,0.32l-0.56-0.32l-0.55,0.32l-0.56-0.32l-0.55,0.32
				l-0.56-0.32l-0.55,0.32l-0.56-0.32l-0.55,0.32l-0.56-0.32l-0.55,0.32l-0.56-0.32l-0.55,0.32l-0.56-0.32l-0.55,0.32l-0.56-0.32
				l-0.23,0.13c8.46-16.3,1.2-32.87-25.48-48.27c-20.07-11.59-41.18-16.85-62.45-16.55c-0.37,0-0.74-0.01-1.11,0
				c-0.37,0-0.74-0.01-1.11,0c-0.37,0-0.74-0.01-1.11,0c-0.37,0-0.74-0.01-1.11,0c-0.37,0-0.74-0.01-1.11,0
				c-0.37,0-0.74-0.01-1.11,0c-0.37,0-0.74-0.01-1.11,0c-0.37,0-0.74-0.01-1.11,0c-0.37,0-0.74-0.01-1.11,0
				c-0.37,0-0.74-0.01-1.11,0c-0.37,0-0.74-0.01-1.11,0c-0.37,0-0.74-0.01-1.11,0c-0.37,0-0.74-0.01-1.11,0
				c-0.37,0-0.74-0.01-1.11,0c-0.37,0-0.74-0.01-1.11,0c-0.37,0-0.74-0.01-1.11,0c-0.37,0-0.74-0.01-1.11,0
				c-0.37,0-0.74-0.01-1.11,0c-0.37,0-0.74-0.01-1.11,0c-0.37,0-0.74-0.01-1.11,0c-0.37,0-0.74-0.01-1.11,0
				c-0.37,0-0.74-0.01-1.11,0c-0.37,0-0.74-0.01-1.11,0c-0.37,0-0.74-0.01-1.11,0c-0.37,0-0.74-0.01-1.11,0
				c-0.37,0-0.74-0.01-1.11,0c-0.37,0-0.74-0.01-1.11,0c-0.37,0-0.74-0.01-1.11,0c-0.37,0-0.74-0.01-1.11,0
				c-0.37,0-0.74-0.01-1.11,0c-0.37,0-0.74-0.01-1.11,0c-0.37,0-0.74-0.01-1.11,0c-0.37,0-0.74-0.01-1.11,0
				c-0.37,0-0.74-0.01-1.11,0c-0.37,0-0.74-0.01-1.11,0c-0.37,0-0.74-0.01-1.11,0c-0.37,0-0.74-0.01-1.11,0
				c-0.37,0-0.74-0.01-1.11,0c-0.37,0-0.74-0.01-1.11,0c-0.37,0-0.74-0.01-1.11,0c-0.37,0-0.74-0.01-1.11,0
				c-0.37,0-0.74-0.01-1.11,0c-0.37,0-0.74-0.01-1.11,0c-0.37,0-0.74-0.01-1.11,0c-0.37,0-0.74-0.01-1.11,0
				c-0.37,0-0.74-0.01-1.11,0c-0.37,0-0.74-0.01-1.11,0c-0.37,0-0.74-0.01-1.11,0c-0.37,0-0.74-0.01-1.11,0
				c-0.37,0-0.74-0.01-1.11,0c-0.37,0-0.74-0.01-1.11,0c-0.37,0-0.74-0.01-1.11,0c-0.37,0-0.74-0.01-1.11,0
				c-0.37,0-0.74-0.01-1.11,0c-0.37,0-0.74-0.01-1.11,0c-0.37,0-0.74-0.01-1.11,0c-0.37,0-0.74-0.01-1.11,0
				c-0.37,0-0.74-0.01-1.11,0c-0.37,0-0.74-0.01-1.11,0c-0.37,0-0.74-0.01-1.11,0c-0.37,0-0.74-0.01-1.11,0
				c-0.37,0-0.74-0.01-1.11,0c-0.37,0-0.74-0.01-1.11,0c-0.37,0-0.74-0.01-1.11,0c-0.37,0-0.74-0.01-1.11,0
				c-0.37,0-0.74-0.01-1.11,0c-0.37,0-0.74-0.01-1.11,0c-0.37,0-0.74-0.01-1.11,0c-0.37,0-0.74-0.01-1.11,0
				c-0.37,0-0.74-0.01-1.11,0c-0.37,0-0.74-0.01-1.11,0c-0.37,0-0.74-0.01-1.11,0c-0.37,0-0.74-0.01-1.11,0
				c-0.37,0-0.74-0.01-1.11,0c-0.37,0-0.74-0.01-1.11,0c-0.37,0-0.74-0.01-1.11,0c-0.37,0-0.74-0.01-1.11,0
				c-0.37,0-0.74-0.01-1.11,0c-0.37,0-0.74-0.01-1.11,0c-0.37,0-0.74-0.01-1.11,0c-0.37,0-0.74-0.01-1.11,0
				c-0.37,0-0.74-0.01-1.11,0c-0.37,0-0.74-0.01-1.11,0c-0.37,0-0.74-0.01-1.11,0c-0.37,0-0.74-0.01-1.11,0
				c-0.37,0-0.74-0.01-1.11,0c-0.37,0-0.74-0.01-1.11,0c-0.37,0-0.74-0.01-1.11,0c-0.37,0-0.74-0.01-1.11,0
				c-0.37,0-0.74-0.01-1.11,0c-0.37,0-0.74-0.01-1.11,0c-0.37,0-0.74-0.01-1.11,0c-0.37,0-0.74-0.01-1.11,0
				c-0.37,0-0.74-0.01-1.11,0c-0.37,0-0.74-0.01-1.11,0c-0.37,0-0.74-0.01-1.11,0c-0.37,0-0.74-0.01-1.11,0
				c-0.37,0-0.74-0.01-1.11,0c-0.37,0-0.74-0.01-1.11,0c-0.37,0-0.74-0.01-1.11,0c-0.37,0-0.74-0.01-1.11,0
				c-0.37,0-0.74-0.01-1.11,0c-0.37,0-0.74-0.01-1.11,0c-0.37,0-0.74-0.01-1.11,0c-0.37,0-0.74-0.01-1.11,0
				c-0.37,0-0.74-0.01-1.11,0c-0.37,0-0.74-0.01-1.11,0c-0.37,0-0.74-0.01-1.11,0c-0.37,0-0.74-0.01-1.11,0
				c-0.37,0-0.74-0.01-1.11,0c-0.37,0-0.74-0.01-1.11,0c-0.37,0-0.74-0.01-1.11,0c-0.37,0-0.74-0.01-1.11,0
				c-0.37,0-0.74-0.01-1.11,0c-0.37,0-0.74-0.01-1.11,0c-0.37,0-0.74-0.01-1.11,0c-0.37,0-0.74-0.01-1.11,0
				c-0.37,0-0.74-0.01-1.11,0c-0.37,0-0.74-0.01-1.11,0c-0.37,0-0.74-0.01-1.11,0c-24.37,0.13-48.97,7.57-72.47,21.23
				c-40.45,23.51-37.35,50.17-32.77,75.52l-0.37,0.21l-0.56-0.32l-0.55,0.32l-0.56-0.32l-0.55,0.32l-0.56-0.32l-0.55,0.32
				l-0.56-0.32l-0.55,0.32l-0.56-0.32l-0.55,0.32l-0.56-0.32l-0.55,0.32l-0.56-0.32l-0.55,0.32l-0.56-0.32l-0.55,0.32l-0.56-0.32
				l-0.55,0.32l-0.56-0.32l-0.55,0.32l-0.56-0.32l-0.55,0.32l-0.56-0.32l-0.55,0.32l-0.56-0.32l-0.55,0.32l-0.56-0.32l-0.55,0.32
				l-0.56-0.32l-0.55,0.32l-0.56-0.32l-0.55,0.32l-0.56-0.32l-0.55,0.32l-0.56-0.32l-0.55,0.32l-0.56-0.32l-0.55,0.32l-0.56-0.32
				l-0.55,0.32l-0.56-0.32l-0.55,0.32l-0.56-0.32l-0.55,0.32l-0.56-0.32l-0.55,0.32l-0.56-0.32l-0.55,0.32l-0.56-0.32l-0.55,0.32
				l-0.56-0.32l-0.55,0.32l-0.56-0.32l-0.55,0.32l-0.56-0.32l-0.55,0.32l-0.56-0.32l-0.55,0.32l-0.56-0.32l-0.55,0.32l-0.56-0.32
				l-0.55,0.32l-0.56-0.32l-0.55,0.32l-0.56-0.32l-0.55,0.32l-0.56-0.32l-0.55,0.32l-0.56-0.32l-0.55,0.32l-0.56-0.32l-0.55,0.32
				l-0.56-0.32l-0.55,0.32l-0.56-0.32l-0.55,0.32l-0.56-0.32l-0.55,0.32l-0.56-0.32l-0.55,0.32l-0.56-0.32l-0.55,0.32l-0.56-0.32
				l-0.55,0.32l-0.56-0.32l-0.55,0.32l-0.56-0.32l-0.55,0.32l-0.56-0.32l-0.55,0.32l-0.56-0.32l-0.55,0.32l-0.56-0.32l-0.55,0.32
				l-0.56-0.32l-0.55,0.32l-0.56-0.32l-0.55,0.32l-0.56-0.32l-0.55,0.32l-0.56-0.32l-0.55,0.32l-0.56-0.32l-0.55,0.32l-0.56-0.32
				l-0.55,0.32l-0.56-0.32l-0.55,0.32l-0.56-0.32l-0.55,0.32l-0.56-0.32l-0.55,0.32l-0.56-0.32l-0.55,0.32l-0.56-0.32l-0.55,0.32
				l-0.56-0.32l-0.55,0.32l-0.56-0.32l-0.55,0.32l-0.56-0.32l-0.55,0.32l-0.56-0.32l-0.55,0.32l-0.56-0.32l-0.55,0.32l-0.56-0.32
				l-0.55,0.32l-0.56-0.32l-0.55,0.32l-0.56-0.32l-0.55,0.32l-0.56-0.32l-0.55,0.32l-0.56-0.32l-0.55,0.32l-0.56-0.32l-0.55,0.32
				l-0.56-0.32l-0.55,0.32l-0.56-0.32l-0.55,0.32l-0.56-0.32l-0.55,0.32l-0.56-0.32l-0.55,0.32l-0.56-0.32l-0.55,0.32l-0.56-0.32
				l-0.55,0.32l-0.56-0.32l-0.55,0.32l-0.56-0.32l-0.55,0.32l-0.56-0.32l-0.55,0.32l-0.56-0.32l-0.55,0.32l-0.56-0.32l-0.55,0.32
				l-0.56-0.32l-0.55,0.32l-0.56-0.32l-0.55,0.32l-0.56-0.32l-0.55,0.32l-0.56-0.32l-0.55,0.32l-0.56-0.32l-0.55,0.32l-0.56-0.32
				l-0.55,0.32l-0.56-0.32l-0.55,0.32l-0.56-0.32l-0.55,0.32l-0.56-0.32l-0.55,0.32l-0.56-0.32l-16.16,9.39
				c-42.86,24.91-50.4,52.86-6.87,78c20.47,11.82,42.08,17.14,63.67,16.88c0.37,0,0.74,0,1.11,0c0.37,0,0.74,0,1.11,0
				c0.37,0,0.74,0,1.11,0c0.37,0,0.74,0,1.11,0c0.37,0,0.74,0,1.11,0c0.37,0,0.74,0,1.11,0c0.37,0,0.74,0,1.11,0
				c0.37,0,0.74,0,1.11,0c0.37,0,0.74,0,1.11,0c0.37,0,0.74,0,1.11,0c0.37,0,0.74,0,1.11,0c0.37,0,0.74,0,1.11,0
				c0.37,0,0.74,0,1.11,0c0.37,0,0.74,0,1.11,0c0.37,0,0.74,0,1.11,0c0.37,0,0.74,0,1.11,0c0.37,0,0.74,0,1.11,0
				c0.37,0,0.74,0,1.11,0c0.37,0,0.74,0,1.11,0c0.37,0,0.74,0,1.11,0c0.37,0,0.74,0,1.11,0c0.37,0,0.74,0,1.11,0
				c0.37,0,0.74,0,1.11,0c0.37,0,0.74,0,1.11,0c0.37,0,0.74,0,1.11,0c0.37,0,0.74,0,1.11,0c0.37,0,0.74,0,1.11,0
				c0.37,0,0.74,0,1.11,0c0.37,0,0.74,0,1.11,0c0.37,0,0.74,0,1.11,0c0.37,0,0.74,0,1.11,0c0.37,0,0.74,0,1.11,0
				c0.37,0,0.74,0,1.11,0c0.37,0,0.74,0,1.11,0c0.37,0,0.74,0,1.11,0c0.37,0,0.74,0,1.11,0c0.37,0,0.74,0,1.11,0
				c0.37,0,0.74,0,1.11,0c0.37,0,0.74,0,1.11,0c0.37,0,0.74,0,1.11,0c0.37,0,0.74,0,1.11,0c0.37,0,0.74,0,1.11,0
				c0.37,0,0.74,0,1.11,0c0.37,0,0.74,0,1.11,0c0.37,0,0.74,0,1.11,0c0.37,0,0.74,0,1.11,0c0.37,0,0.74,0,1.11,0
				c0.37,0,0.74,0,1.11,0c0.37,0,0.74,0,1.11,0c0.37,0,0.74,0,1.11,0c0.37,0,0.74,0,1.11,0c0.37,0,0.74,0,1.11,0
				c0.37,0,0.74,0,1.11,0c0.37,0,0.74,0,1.11,0c0.37,0,0.74,0,1.11,0c0.37,0,0.74,0,1.11,0c0.37,0,0.74,0,1.11,0
				c0.37,0,0.74,0,1.11,0c0.37,0,0.74,0,1.11,0c0.37,0,0.74,0,1.11,0c0.37,0,0.74,0,1.11,0c0.37,0,0.74,0,1.11,0
				c0.37,0,0.74,0,1.11,0c0.37,0,0.74,0,1.11,0c0.37,0,0.74,0,1.11,0c0.37,0,0.74,0,1.11,0c0.37,0,0.74,0,1.11,0
				c0.37,0,0.74,0,1.11,0c0.37,0,0.74,0,1.11,0c0.37,0,0.74,0,1.11,0c0.37,0,0.74,0,1.11,0c0.37,0,0.74,0,1.11,0
				c0.37,0,0.74,0,1.11,0c0.37,0,0.74,0,1.11,0c0.37,0,0.74,0,1.11,0c0.37,0,0.74,0,1.11,0c0.37,0,0.74,0,1.11,0
				c0.37,0,0.74,0,1.11,0c0.37,0,0.74,0,1.11,0c0.37,0,0.74,0,1.11,0c0.37,0,0.74,0,1.11,0c0.37,0,0.74,0,1.11,0
				c0.37,0,0.74,0,1.11,0c0.37,0,0.74,0,1.11,0c0.37,0,0.74,0,1.11,0c0.37,0,0.74,0,1.11,0c0.37,0,0.74,0,1.11,0
				c0.37,0,0.74,0,1.11,0c0.37,0,0.74,0,1.11,0c0.37,0,0.74,0,1.11,0c0.37,0,0.74,0,1.11,0c0.37,0,0.74,0,1.11,0
				c0.37,0,0.74,0,1.11,0c0.37,0,0.74,0,1.11,0c0.37,0,0.74,0,1.11,0c0.37,0,0.74,0,1.11,0c0.37,0,0.74,0,1.11,0
				c0.37,0,0.74,0,1.11,0c0.37,0,0.74,0,1.11,0c0.37,0,0.74,0,1.11,0c0.37,0,0.74,0,1.11,0c0.37,0,0.74,0,1.11,0
				c0.37,0,0.74,0,1.11,0c0.37,0,0.74,0,1.11,0c0.37,0,0.74,0,1.11,0c0.37,0,0.74,0,1.11,0c0.37,0,0.74,0,1.11,0
				c0.37,0,0.74,0,1.11,0c0.37,0,0.74,0,1.11,0c0.37,0,0.74,0,1.11,0c0.37,0,0.74,0,1.11,0c0.37,0,0.74,0,1.11,0
				c0.37,0,0.74,0,1.11,0c0.37,0,0.74,0,1.11,0c0.37,0,0.74,0,1.11,0c0.37,0,0.74,0,1.11,0c0.37,0,0.74,0,1.11,0
				c0.37,0,0.74,0,1.11,0c0.37,0,0.74,0,1.11,0c0.37,0,0.74,0,1.11,0c24.7-0.09,49.41-7.49,72.46-20.88
				c43.47-25.26,36.52-54.24,31.57-81.34l0.13,0.08l0.55-0.32l0.56,0.32l0.55-0.32l0.56,0.32l0.55-0.32l0.56,0.32l0.55-0.32
				l0.56,0.32l0.55-0.32l0.56,0.32l0.55-0.32l0.56,0.32l0.55-0.32l0.56,0.32l0.55-0.32l0.56,0.32l0.55-0.32l0.56,0.32l0.55-0.32
				l0.56,0.32l0.55-0.32l0.56,0.32l0.55-0.32l0.56,0.32l0.55-0.32l0.56,0.32l0.55-0.32l0.56,0.32l0.55-0.32l0.56,0.32l0.55-0.32
				l0.56,0.32l0.55-0.32l0.56,0.32l0.55-0.32l0.56,0.32l0.55-0.32l0.56,0.32l0.55-0.32l0.56,0.32l0.55-0.32l0.56,0.32l0.55-0.32
				l0.56,0.32l0.55-0.32l0.56,0.32l0.55-0.32l0.56,0.32l0.55-0.32l0.56,0.32l0.55-0.32l0.56,0.32l0.55-0.32l0.56,0.32l0.55-0.32
				l0.56,0.32l0.55-0.32l0.56,0.32l0.55-0.32l0.56,0.32l0.55-0.32l0.56,0.32l0.55-0.32l0.56,0.32l0.55-0.32l0.56,0.32l0.55-0.32
				l0.56,0.32l0.55-0.32l0.56,0.32l0.55-0.32l0.56,0.32l0.55-0.32l0.56,0.32l0.55-0.32l0.56,0.32l0.55-0.32l0.56,0.32l0.55-0.32
				l0.56,0.32l0.55-0.32l0.56,0.32l0.55-0.32l0.56,0.32l0.55-0.32l0.56,0.32l0.55-0.32l0.56,0.32l0.55-0.32l0.56,0.32l0.55-0.32
				l0.56,0.32l0.55-0.32l0.56,0.32l0.55-0.32l0.56,0.32l0.55-0.32l0.56,0.32l0.55-0.32l0.56,0.32l0.55-0.32l0.56,0.32l0.55-0.32
				l0.56,0.32l0.55-0.32l0.56,0.32l0.55-0.32l0.56,0.32l0.55-0.32l0.56,0.32l0.55-0.32l0.56,0.32l0.55-0.32l0.56,0.32l0.55-0.32
				l0.56,0.32l0.55-0.32l0.56,0.32l0.55-0.32l0.56,0.32l0.55-0.32l0.56,0.32l0.02-0.01l22.37,12.91l-254.26,147.76l31.75,18.33
				l0.55-0.32l0.56,0.32l0.55-0.32l0.56,0.32l0.55-0.32l0.56,0.32l0.55-0.32l0.56,0.32l0.55-0.32l0.56,0.32l0.55-0.32l0.56,0.32
				l0.55-0.32l0.56,0.32l0.55-0.32l0.56,0.32l0.55-0.32l0.56,0.32l0.55-0.32l0.56,0.32l0.55-0.32l0.56,0.32l0.55-0.32l0.56,0.32
				l0.55-0.32l0.56,0.32l0.55-0.32l0.56,0.32l0.55-0.32l0.56,0.32l0.55-0.32l0.56,0.32l0.55-0.32l0.56,0.32l0.55-0.32l0.56,0.32
				l0.55-0.32l0.56,0.32l0.55-0.32l0.56,0.32l0.55-0.32l0.56,0.32l0.55-0.32l0.56,0.32l0.55-0.32l0.56,0.32l0.55-0.32l0.56,0.32
				l0.55-0.32l0.56,0.32l0.55-0.32l0.56,0.32l0.55-0.32l0.56,0.32l0.55-0.32l0.56,0.32l0.55-0.32l0.56,0.32l0.55-0.32l0.56,0.32
				l0.55-0.32l0.56,0.32l0.55-0.32l0.56,0.32l0.55-0.32l0.56,0.32l0.55-0.32l0.56,0.32l0.55-0.32l0.56,0.32l0.55-0.32l0.56,0.32
				l0.55-0.32l0.56,0.32l0.55-0.32l0.56,0.32l0.55-0.32l0.56,0.32l0.55-0.32l0.56,0.32l0.55-0.32l0.56,0.32l0.55-0.32l0.56,0.32
				l0.55-0.32l0.56,0.32l0.55-0.32l0.56,0.32l0.55-0.32l0.56,0.32l0.55-0.32l0.56,0.32l0.55-0.32l0.56,0.32l0.55-0.32l0.56,0.32
				l0.55-0.32l0.56,0.32l0.55-0.32l0.56,0.32l0.55-0.32l0.56,0.32l0.55-0.32l0.56,0.32l0.55-0.32l0.56,0.32l0.55-0.32l0.56,0.32
				l0.55-0.32l0.56,0.32l0.55-0.32l0.56,0.32l0.55-0.32l0.56,0.32l0.55-0.32l0.56,0.32l0.55-0.32l0.56,0.32l0.55-0.32l0.56,0.32
				l0.55-0.32l0.56,0.32l0.55-0.32l0.56,0.32l0.55-0.32l0.56,0.32l0.55-0.32l0.56,0.32l0.55-0.32l0.56,0.32l0.55-0.32l0.56,0.32
				l0.55-0.32l0.56,0.32l0.55-0.32l0.56,0.32l0.55-0.32l0.56,0.32l0.55-0.32l0.56,0.32l0.55-0.32l0.56,0.32l0.55-0.32l0.56,0.32
				l0.55-0.32l0.56,0.32l0.55-0.32l0.56,0.32l0.55-0.32l0.56,0.32l0.55-0.32l0.56,0.32l0.55-0.32l0.56,0.32l0.55-0.32l0.56,0.32
				l0.55-0.32l0.56,0.32l0.55-0.32l0.56,0.32l0.55-0.32l0.56,0.32l0.55-0.32l0.56,0.32l0.55-0.32l0.56,0.32l0.55-0.32l0.56,0.32
				l0.55-0.32l0.56,0.32l0.55-0.32l0.56,0.32l0.55-0.32l0.56,0.32l0.55-0.32l0.56,0.32l0.55-0.32l0.56,0.32l0.55-0.32l0.56,0.32
				l0.55-0.32l0.56,0.32l0.55-0.32l0.56,0.32l0.55-0.32l0.56,0.32l0.55-0.32l0.56,0.32l0.55-0.32l0.56,0.32l0.55-0.32l0.56,0.32
				l0.55-0.32l0.56,0.32l0.55-0.32l0.56,0.32l0.55-0.32l0.56,0.32l0.55-0.32l0.56,0.32l0.55-0.32l0.56,0.32l0.55-0.32l0.56,0.32
				l0.55-0.32l0.56,0.32l0.55-0.32l0.56,0.32l0.55-0.32l0.56,0.32l0.55-0.32l0.56,0.32l0.55-0.32l0.56,0.32l0.55-0.32l0.56,0.32
				l0.55-0.32l0.56,0.32l0.55-0.32l0.56,0.32l0.55-0.32l0.56,0.32l0.55-0.32l0.56,0.32l0.55-0.32l0.56,0.32l0.55-0.32l0.25,0.14
				l-74.99,29.54l29.28,16.91l0.66-0.26l0.45,0.26l0.66-0.26l0.45,0.26l0.66-0.26l0.45,0.26l0.66-0.26l0.45,0.26l0.66-0.26
				l0.45,0.26l0.66-0.26l0.45,0.26l0.66-0.26l0.45,0.26l0.66-0.26l0.45,0.26l0.66-0.26l0.45,0.26l0.66-0.26l0.45,0.26l0.66-0.26
				l0.45,0.26l0.66-0.26l0.45,0.26l0.66-0.26l0.45,0.26l0.66-0.26l0.45,0.26l0.66-0.26l0.45,0.26l0.66-0.26l0.45,0.26l0.66-0.26
				l0.45,0.26l0.66-0.26l0.45,0.26l0.66-0.26l0.45,0.26l0.66-0.26l0.45,0.26l0.66-0.26l0.45,0.26l0.66-0.26l0.45,0.26l0.66-0.26
				l0.45,0.26l0.66-0.26l0.45,0.26l0.66-0.26l0.45,0.26l0.66-0.26l0.45,0.26l0.66-0.26l0.45,0.26l0.66-0.26l0.45,0.26l0.66-0.26
				l0.45,0.26l0.66-0.26l0.45,0.26l0.66-0.26l0.45,0.26l0.66-0.26l0.45,0.26l0.66-0.26l0.45,0.26l0.66-0.26l0.45,0.26l0.66-0.26
				l0.45,0.26l0.66-0.26l0.45,0.26l0.66-0.26l0.45,0.26l0.66-0.26l0.45,0.26l0.66-0.26l0.45,0.26l0.66-0.26l0.45,0.26l0.66-0.26
				l0.45,0.26l0.66-0.26l0.45,0.26l0.66-0.26l0.45,0.26l0.66-0.26l0.45,0.26l0.66-0.26l0.45,0.26l0.66-0.26l0.45,0.26l0.66-0.26
				l0.45,0.26l0.66-0.26l0.45,0.26l0.66-0.26l0.45,0.26l0.66-0.26l0.45,0.26l0.66-0.26l0.45,0.26l0.66-0.26l0.45,0.26l0.66-0.26
				l0.45,0.26l0.66-0.26l0.45,0.26l0.66-0.26l0.45,0.26l0.66-0.26l0.45,0.26l0.66-0.26l0.45,0.26l0.66-0.26l0.45,0.26l0.66-0.26
				l0.45,0.26l0.66-0.26l0.45,0.26l0.66-0.26l0.45,0.26l0.66-0.26l0.45,0.26l0.66-0.26l0.45,0.26l0.66-0.26l0.45,0.26l0.66-0.26
				l0.45,0.26l0.66-0.26l0.45,0.26l0.66-0.26l0.45,0.26l0.66-0.26l0.45,0.26l0.66-0.26l0.45,0.26l0.66-0.26l0.45,0.26l0.66-0.26
				l0.45,0.26l0.66-0.26l0.45,0.26l0.66-0.26l0.45,0.26l0.66-0.26l0.45,0.26l0.66-0.26l0.45,0.26l0.66-0.26l0.45,0.26l0.66-0.26
				l0.45,0.26l0.66-0.26l0.45,0.26l0.66-0.26l0.45,0.26l0.66-0.26l0.45,0.26l0.66-0.26l0.45,0.26l0.66-0.26l0.45,0.26l0.66-0.26
				l0.45,0.26l0.66-0.26l0.45,0.26l0.66-0.26l0.45,0.26l0.66-0.26l0.45,0.26l0.66-0.26l0.45,0.26l0.66-0.26l0.45,0.26l0.66-0.26
				l0.45,0.26l0.66-0.26l0.45,0.26l0.66-0.26l0.45,0.26l0.66-0.26l0.45,0.26l0.66-0.26l0.45,0.26l0.66-0.26l0.45,0.26l0.66-0.26
				l0.45,0.26l0.66-0.26l0.45,0.26l0.66-0.26l0.45,0.26l0.66-0.26l0.45,0.26l0.66-0.26l0.45,0.26l0.66-0.26l0.45,0.26l0.66-0.26
				l0.45,0.26l0.66-0.26l0.45,0.26l0.66-0.26l0.45,0.26l0.23-0.09l25.78,14.89l-46.01,39.47l31.75,18.33l0.45-0.38l0.66,0.38
				l0.45-0.38l0.66,0.38l0.45-0.38l0.66,0.38l0.45-0.38l0.66,0.38l0.45-0.38l0.66,0.38l0.45-0.38l0.66,0.38l0.45-0.38l0.66,0.38
				l0.45-0.38l0.66,0.38l0.45-0.38l0.66,0.38l0.45-0.38l0.66,0.38l0.45-0.38l0.66,0.38l0.45-0.38l0.66,0.38l0.45-0.38l0.66,0.38
				l0.45-0.38l0.66,0.38l0.45-0.38l0.66,0.38l0.45-0.38l0.66,0.38l0.45-0.38l0.66,0.38l0.45-0.38l0.66,0.38l0.45-0.38l0.66,0.38
				l0.45-0.38l0.66,0.38l0.45-0.38l0.66,0.38l0.45-0.38l0.66,0.38l0.45-0.38l0.66,0.38l0.45-0.38l0.66,0.38l0.45-0.38l0.66,0.38
				l0.45-0.38l0.66,0.38l0.45-0.38l0.66,0.38l0.45-0.38l0.66,0.38l0.45-0.38l0.66,0.38l0.45-0.38l0.66,0.38l0.45-0.38l0.66,0.38
				l0.45-0.38l0.66,0.38l0.45-0.38l0.66,0.38l0.45-0.38l0.66,0.38l0.45-0.38l0.66,0.38l0.45-0.38l0.66,0.38l0.45-0.38l0.66,0.38
				l0.45-0.38l0.66,0.38l0.45-0.38l0.66,0.38l0.45-0.38l0.66,0.38l0.45-0.38l0.66,0.38l0.45-0.38l0.66,0.38l0.45-0.38l0.66,0.38
				l0.45-0.38l0.66,0.38l0.45-0.38l0.66,0.38l0.45-0.38l0.66,0.38l0.45-0.38l0.66,0.38l0.45-0.38l0.66,0.38l0.45-0.38l0.66,0.38
				l0.45-0.38l0.66,0.38l0.45-0.38l0.66,0.38l0.45-0.38l0.66,0.38l0.45-0.38l0.66,0.38l0.45-0.38l0.66,0.38l0.45-0.38l0.66,0.38
				l0.45-0.38l0.66,0.38l0.45-0.38l0.66,0.38l0.45-0.38l0.66,0.38l0.45-0.38l0.66,0.38l0.45-0.38l0.66,0.38l0.45-0.38l0.66,0.38
				l0.45-0.38l0.66,0.38l0.45-0.38l0.66,0.38l0.45-0.38l0.66,0.38l0.45-0.38l0.66,0.38l0.45-0.38l0.66,0.38l0.45-0.38l0.66,0.38
				l0.45-0.38l0.66,0.38l0.45-0.38l0.66,0.38l0.45-0.38l0.66,0.38l0.45-0.38l0.66,0.38l0.45-0.38l0.66,0.38l0.45-0.38l0.66,0.38
				l0.45-0.38l0.66,0.38l0.45-0.38l0.66,0.38l0.45-0.38l0.66,0.38l0.45-0.38l0.66,0.38l0.45-0.38l0.66,0.38l0.45-0.38l0.66,0.38
				l0.45-0.38l0.66,0.38l0.45-0.38l0.66,0.38l0.45-0.38l0.66,0.38l0.45-0.38l0.66,0.38l0.45-0.38l0.66,0.38l0.45-0.38l0.66,0.38
				l0.45-0.38l0.66,0.38l0.45-0.38l0.66,0.38l0.45-0.38l0.66,0.38l0.45-0.38l0.66,0.38l0.45-0.38l0.66,0.38l0.45-0.38l0.66,0.38
				l0.45-0.38l0.66,0.38l0.45-0.38l0.66,0.38l0.45-0.38l0.66,0.38l0.45-0.38l0.66,0.38l0.45-0.38l0.66,0.38l0.45-0.38l0.66,0.38
				l0.45-0.38l0.66,0.38l0.45-0.38l0.66,0.38l0.45-0.38l0.66,0.38l0.45-0.38l0.66,0.38l0.45-0.38l0.66,0.38l0.45-0.38l0.66,0.38
				l0.45-0.38l0.66,0.38l0.45-0.38l0.66,0.38l0.45-0.38l0.66,0.38l0.45-0.38l0.66,0.38l0.45-0.38l0.66,0.38l0.45-0.38l0.66,0.38
				l0.45-0.38l0.66,0.38l0.45-0.38l0.66,0.38l0.45-0.38l0.66,0.38l0.45-0.38l0.66,0.38l0.45-0.38l0.66,0.38l0.45-0.38l0.66,0.38
				l0.45-0.38l0.66,0.38l0.45-0.38l0.66,0.38l0.45-0.38l0.66,0.38l0.45-0.38l0.66,0.38l0.45-0.38l0.66,0.38l0.45-0.38l0.66,0.38
				l113.84-97.63l-71.03,82.12l-101.46,58.96l31.34,18.09l0.55-0.32l0.56,0.32l0.55-0.32l0.56,0.32l0.55-0.32l0.56,0.32l0.55-0.32
				l0.56,0.32l0.55-0.32l0.56,0.32l0.55-0.32l0.56,0.32l0.55-0.32l0.56,0.32l0.55-0.32l0.56,0.32l0.55-0.32l0.56,0.32l0.55-0.32
				l0.56,0.32l0.55-0.32l0.56,0.32l0.55-0.32l0.56,0.32l0.55-0.32l0.56,0.32l0.55-0.32l0.56,0.32l0.55-0.32l0.56,0.32l0.55-0.32
				l0.56,0.32l0.55-0.32l0.56,0.32l0.55-0.32l0.56,0.32l0.55-0.32l0.56,0.32l0.55-0.32l0.56,0.32l0.55-0.32l0.56,0.32l0.55-0.32
				l0.56,0.32l0.55-0.32l0.56,0.32l0.55-0.32l0.56,0.32l0.55-0.32l0.56,0.32l0.55-0.32l0.56,0.32l0.55-0.32l0.56,0.32l0.55-0.32
				l0.56,0.32l0.55-0.32l0.56,0.32l0.55-0.32l0.56,0.32l0.55-0.32l0.56,0.32l0.55-0.32l0.56,0.32l0.55-0.32l0.56,0.32l0.55-0.32
				l0.56,0.32l0.55-0.32l0.56,0.32l0.55-0.32l0.56,0.32l0.55-0.32l0.56,0.32l0.55-0.32l0.56,0.32l0.55-0.32l0.56,0.32l0.55-0.32
				l0.56,0.32l0.55-0.32l0.56,0.32l0.55-0.32l0.56,0.32l0.55-0.32l0.56,0.32l0.55-0.32l0.56,0.32l0.55-0.32l0.56,0.32l0.55-0.32
				l0.56,0.32l0.55-0.32l0.56,0.32l0.55-0.32l0.56,0.32l0.55-0.32l0.56,0.32l0.55-0.32l0.56,0.32l0.55-0.32l0.56,0.32l0.55-0.32
				l0.56,0.32l0.55-0.32l0.56,0.32l0.55-0.32l0.56,0.32l0.55-0.32l0.56,0.32l0.55-0.32l0.56,0.32l0.55-0.32l0.56,0.32l0.55-0.32
				l0.56,0.32l0.55-0.32l0.56,0.32l0.55-0.32l0.56,0.32l0.55-0.32l0.56,0.32l0.55-0.32l0.56,0.32l0.55-0.32l0.56,0.32l0.55-0.32
				l0.56,0.32l0.55-0.32l0.56,0.32l0.55-0.32l0.56,0.32l0.55-0.32l0.56,0.32l0.55-0.32l0.56,0.32l0.55-0.32l0.56,0.32l0.55-0.32
				l0.56,0.32l0.55-0.32l0.56,0.32l0.55-0.32l0.56,0.32l0.55-0.32l0.56,0.32l0.55-0.32l0.56,0.32l0.55-0.32l0.56,0.32l0.55-0.32
				l0.56,0.32l0.55-0.32l0.56,0.32l0.55-0.32l0.56,0.32l0.55-0.32l0.56,0.32l0.55-0.32l0.56,0.32l0.55-0.32l0.56,0.32l0.55-0.32
				l0.56,0.32l0.55-0.32l0.56,0.32l0.55-0.32l0.56,0.32l0.55-0.32l0.56,0.32l0.55-0.32l0.56,0.32l0.55-0.32l0.56,0.32l0.55-0.32
				l0.56,0.32l0.55-0.32l0.56,0.32l0.55-0.32l0.56,0.32l0.55-0.32l0.56,0.32l0.55-0.32l0.56,0.32l0.55-0.32l0.56,0.32l0.55-0.32
				l0.56,0.32l0.55-0.32l0.56,0.32l0.55-0.32l0.56,0.32l0.55-0.32l0.56,0.32l0.55-0.32l0.56,0.32l0.55-0.32l0.56,0.32l0.55-0.32
				l0.56,0.32l0.55-0.32l0.56,0.32l0.55-0.32l0.56,0.32l0.55-0.32l0.56,0.32l0.55-0.32l0.56,0.32l0.55-0.32l0.56,0.32l0.55-0.32
				l0.56,0.32l0.55-0.32l0.56,0.32l0.55-0.32l0.56,0.32l0.55-0.32l0.56,0.32l0.55-0.32l0.56,0.32l0.55-0.32l0.56,0.32l0.55-0.32
				l0.56,0.32l0.55-0.32l0.56,0.32l0.55-0.32l0.56,0.32l0.55-0.32l0.56,0.32l0.55-0.32l0.56,0.32l0.55-0.32l0.56,0.32l0.55-0.32
				l0.56,0.32l0.55-0.32l0.56,0.32l0.55-0.32l0.56,0.32l0.55-0.32l0.56,0.32L911.43,1414.86z"/>
			<path class="st14" d="M1848.08,1745.36l-0.73,0.22l-0.38-0.22l-0.73,0.22l-0.38-0.22l-0.73,0.22l-0.38-0.22l-0.73,0.22
				l-0.38-0.22l-0.73,0.22l-0.38-0.22l-0.73,0.22l-0.38-0.22l-0.73,0.22l-0.38-0.22l-0.73,0.22l-0.38-0.22l-0.73,0.22l-0.38-0.22
				l-0.73,0.22l-0.38-0.22l-0.73,0.22l-0.38-0.22l-0.73,0.22l-0.38-0.22l-0.73,0.22l-0.38-0.22l-0.73,0.22l-0.38-0.22l-0.73,0.22
				l-0.38-0.22l-0.73,0.22l-0.38-0.22l-0.73,0.22l-0.38-0.22l-0.73,0.22l-0.38-0.22l-0.73,0.22l-0.38-0.22l-0.73,0.22l-0.38-0.22
				l-0.73,0.22l-0.38-0.22l-0.73,0.22l-0.38-0.22l-0.73,0.22l-0.38-0.22l-0.73,0.22l-0.38-0.22l-0.73,0.22l-0.38-0.22l-0.73,0.22
				l-0.38-0.22l-0.73,0.22l-0.38-0.22l-0.73,0.22l-0.38-0.22l-0.73,0.22l-0.38-0.22l-0.73,0.22l-0.38-0.22l-0.73,0.22l-0.38-0.22
				l-0.73,0.22l-0.38-0.22l-0.73,0.22l-0.38-0.22l-0.73,0.22l-0.38-0.22l-0.73,0.22l-0.38-0.22l-0.73,0.22l-0.38-0.22l-0.73,0.22
				l-0.38-0.22l-0.73,0.22l-0.38-0.22l-0.73,0.22l-0.38-0.22l-0.73,0.22l-0.38-0.22l-0.73,0.22l-0.38-0.22l-0.73,0.22l-0.38-0.22
				l-0.73,0.22l-0.38-0.22l-0.73,0.22l-0.38-0.22l-0.73,0.22l-0.38-0.22l-0.73,0.22l-0.38-0.22l-0.73,0.22l-0.38-0.22l-0.73,0.22
				l-0.38-0.22l-0.73,0.22l-0.38-0.22l-0.73,0.22l-0.38-0.22l-0.73,0.22l-0.38-0.22l-0.73,0.22l-0.38-0.22l-0.73,0.22l-0.38-0.22
				l-0.73,0.22l-0.38-0.22l-0.73,0.22l-0.38-0.22l-0.73,0.22l-0.38-0.22l-0.73,0.22l-0.38-0.22l-0.73,0.22l-0.38-0.22l-0.73,0.22
				l-0.38-0.22l-0.73,0.22l-0.38-0.22l-0.73,0.22l-0.38-0.22l-0.73,0.22l-0.38-0.22l-0.73,0.22l-0.38-0.22l-0.73,0.22l-0.38-0.22
				l-0.73,0.22l-0.38-0.22l-0.73,0.22l-0.38-0.22l-0.73,0.22l-0.38-0.22l-0.73,0.22l-0.38-0.22l-0.73,0.22l-0.38-0.22l-0.73,0.22
				l-0.38-0.22l-0.73,0.22l-0.38-0.22l-0.73,0.22l-0.38-0.22l-0.73,0.22l-0.38-0.22l-0.73,0.22l-0.38-0.22l-0.73,0.22l-0.38-0.22
				l-0.73,0.22l-0.38-0.22l-0.73,0.22l-0.38-0.22l-0.73,0.22l-0.38-0.22l-0.73,0.22l-0.38-0.22l-0.73,0.22l-0.38-0.22l-0.73,0.22
				l-0.38-0.22l-0.73,0.22l-0.38-0.22l-0.73,0.22l-0.38-0.22l-0.73,0.22l-0.38-0.22l-0.73,0.22l-0.38-0.22l-0.73,0.22l-0.38-0.22
				l-0.73,0.22l-0.38-0.22l-0.73,0.22l-0.38-0.22l-0.73,0.22l-0.38-0.22l-0.73,0.22l-0.38-0.22l-0.73,0.22l-0.38-0.22l-0.73,0.22
				l-0.38-0.22l-0.73,0.22l-0.38-0.22l-0.73,0.22l-0.38-0.22l-0.73,0.22l-0.38-0.22l-0.73,0.22l-0.38-0.22l-0.73,0.22l-0.38-0.22
				l-0.73,0.22l-0.38-0.22l-0.73,0.22l-0.38-0.22l-0.73,0.22l-0.38-0.22l-0.73,0.22l-0.38-0.22l-0.73,0.22l-0.38-0.22l-0.73,0.22
				l-0.38-0.22l-0.73,0.22l-0.38-0.22l-0.73,0.22l-0.38-0.22l-0.73,0.22l-0.38-0.22l-0.73,0.22l-0.38-0.22l-0.73,0.22l-0.38-0.22
				l-0.73,0.22l-0.38-0.22l-0.73,0.22l-0.38-0.22l-0.73,0.22l-0.38-0.22l-0.73,0.22l-0.38-0.22l-0.73,0.22l-0.38-0.22l-0.73,0.22
				l-0.38-0.22l-0.73,0.22l-0.38-0.22l-0.73,0.22l-0.38-0.22l-0.73,0.22l-0.38-0.22l-0.73,0.22l-0.38-0.22l-0.73,0.22l-0.38-0.22
				l-0.73,0.22l-0.38-0.22l-0.73,0.22l-0.38-0.22l-1.32,0.4l46.13-51.84l-32.96-19.03l-0.37,0.43l-0.74-0.43l-0.37,0.43l-0.74-0.43
				l-0.37,0.43l-0.74-0.43l-0.37,0.43l-0.74-0.43l-0.37,0.43l-0.74-0.43l-0.37,0.43l-0.74-0.43l-0.37,0.43l-0.74-0.43l-0.37,0.43
				l-0.74-0.43l-0.37,0.43l-0.74-0.43l-0.37,0.43l-0.74-0.43l-0.37,0.43l-0.74-0.43l-0.37,0.43l-0.74-0.43l-0.37,0.43l-0.74-0.43
				l-0.37,0.43l-0.74-0.43l-0.37,0.43l-0.74-0.43l-0.37,0.43l-0.74-0.43l-0.37,0.43l-0.74-0.43l-0.37,0.43l-0.74-0.43l-0.37,0.43
				l-0.74-0.43l-0.37,0.43l-0.74-0.43l-0.37,0.43l-0.74-0.43l-0.37,0.43l-0.74-0.43l-0.37,0.43l-0.74-0.43l-0.37,0.43l-0.74-0.43
				l-0.37,0.43l-0.74-0.43l-0.37,0.43l-0.74-0.43l-0.37,0.43l-0.74-0.43l-0.37,0.43l-0.74-0.43l-0.37,0.43l-0.74-0.43l-0.37,0.43
				l-0.74-0.43l-0.37,0.43l-0.74-0.43l-0.37,0.43l-0.74-0.43l-0.37,0.43l-0.74-0.43l-0.37,0.43l-0.74-0.43l-0.37,0.43l-0.74-0.43
				l-0.37,0.43l-0.74-0.43l-0.37,0.43l-0.74-0.43l-0.37,0.43l-0.74-0.43l-0.37,0.43l-0.74-0.43l-0.37,0.43l-0.74-0.43l-0.37,0.43
				l-0.74-0.43l-0.37,0.43l-0.74-0.43l-0.37,0.43l-0.74-0.43l-0.37,0.43l-0.74-0.43l-0.37,0.43l-0.74-0.43l-0.37,0.43l-0.74-0.43
				l-0.37,0.43l-0.74-0.43l-0.37,0.43l-0.74-0.43l-0.37,0.43l-0.74-0.43l-0.37,0.43l-0.74-0.43l-0.37,0.43l-0.74-0.43l-0.37,0.43
				l-0.74-0.43l-0.37,0.43l-0.74-0.43l-0.37,0.43l-0.74-0.43l-0.37,0.43l-0.74-0.43l-0.37,0.43l-0.74-0.43l-0.37,0.43l-0.74-0.43
				l-0.37,0.43l-0.74-0.43l-0.37,0.43l-0.74-0.43l-0.37,0.43l-0.74-0.43l-0.37,0.43l-0.74-0.43l-0.37,0.43l-0.74-0.43l-0.37,0.43
				l-0.74-0.43l-0.37,0.43l-0.74-0.43l-0.37,0.43l-0.74-0.43l-0.37,0.43l-0.74-0.43l-0.37,0.43l-0.74-0.43l-0.37,0.43l-0.74-0.43
				l-0.37,0.43l-0.74-0.43l-0.37,0.43l-0.74-0.43l-0.37,0.43l-0.74-0.43l-0.37,0.43l-0.74-0.43l-0.37,0.43l-0.74-0.43l-0.37,0.43
				l-0.74-0.43l-0.37,0.43l-0.74-0.43l-0.37,0.43l-0.74-0.43l-0.37,0.43l-0.74-0.43l-0.37,0.43l-0.74-0.43l-0.37,0.43l-0.74-0.43
				l-0.37,0.43l-0.74-0.43l-0.37,0.43l-0.74-0.43l-0.37,0.43l-0.74-0.43l-0.37,0.43l-0.74-0.43l-0.37,0.43l-0.74-0.43l-0.37,0.43
				l-0.74-0.43l-0.37,0.43l-0.74-0.43l-0.37,0.43l-0.74-0.43l-0.37,0.43l-0.74-0.43l-0.37,0.43l-0.74-0.43l-0.37,0.43l-0.74-0.43
				l-0.37,0.43l-0.74-0.43l-0.37,0.43l-0.74-0.43l-0.37,0.43l-0.74-0.43l-0.37,0.43l-0.74-0.43l-0.37,0.43l-0.74-0.43l-0.37,0.43
				l-0.74-0.43l-0.37,0.43l-0.74-0.43l-0.37,0.43l-0.74-0.43l-0.37,0.43l-0.74-0.43l-0.37,0.43l-0.74-0.43l-0.37,0.43l-0.74-0.43
				l-0.37,0.43l-0.74-0.43l-0.37,0.43l-0.74-0.43l-0.37,0.43l-0.74-0.43l-0.37,0.43l-0.74-0.43l-0.37,0.43l-0.2-0.12l47.2-40.48
				l-45.98-26.55l-0.66,0.26l-0.45-0.26l-0.66,0.26l-0.45-0.26l-0.66,0.26l-0.45-0.26l-0.66,0.26l-0.45-0.26l-0.66,0.26l-0.45-0.26
				l-0.66,0.26l-0.45-0.26l-0.66,0.26l-0.45-0.26l-0.66,0.26l-0.45-0.26l-0.66,0.26l-0.45-0.26l-0.66,0.26l-0.45-0.26l-0.66,0.26
				l-0.45-0.26l-0.66,0.26l-0.45-0.26l-0.66,0.26l-0.45-0.26l-0.66,0.26l-0.45-0.26l-0.66,0.26l-0.45-0.26l-0.66,0.26l-0.45-0.26
				l-0.66,0.26l-0.45-0.26l-0.66,0.26l-0.45-0.26l-0.66,0.26l-0.45-0.26l-0.66,0.26l-0.45-0.26l-0.66,0.26l-0.45-0.26l-0.66,0.26
				l-0.45-0.26l-0.66,0.26l-0.45-0.26l-0.66,0.26l-0.45-0.26l-0.66,0.26l-0.45-0.26l-0.66,0.26l-0.45-0.26l-0.66,0.26l-0.45-0.26
				l-0.66,0.26l-0.45-0.26l-0.66,0.26l-0.45-0.26l-0.66,0.26l-0.45-0.26l-0.66,0.26l-0.45-0.26l-0.66,0.26l-0.45-0.26l-0.66,0.26
				l-0.45-0.26l-0.66,0.26l-0.45-0.26l-0.66,0.26l-0.45-0.26l-0.66,0.26l-0.45-0.26l-0.66,0.26l-0.45-0.26l-0.66,0.26l-0.45-0.26
				l-0.66,0.26l-0.45-0.26l-0.66,0.26l-0.45-0.26l-0.66,0.26l-0.45-0.26l-0.66,0.26l-0.45-0.26l-0.66,0.26l-0.45-0.26l-0.66,0.26
				l-0.45-0.26l-0.66,0.26l-0.45-0.26l-0.66,0.26l-0.45-0.26l-0.66,0.26l-0.45-0.26l-0.66,0.26l-0.45-0.26l-0.66,0.26l-0.45-0.26
				l-0.66,0.26l-0.45-0.26l-0.66,0.26l-0.45-0.26l-0.66,0.26l-0.45-0.26l-0.66,0.26l-0.45-0.26l-0.66,0.26l-0.45-0.26l-0.66,0.26
				l-0.45-0.26l-0.66,0.26l-0.45-0.26l-0.66,0.26l-0.45-0.26l-0.66,0.26l-0.45-0.26l-0.66,0.26l-0.45-0.26l-0.66,0.26l-0.45-0.26
				l-0.66,0.26l-0.45-0.26l-0.66,0.26l-0.45-0.26l-0.66,0.26l-0.45-0.26l-0.66,0.26l-0.45-0.26l-0.66,0.26l-0.45-0.26l-0.66,0.26
				l-0.45-0.26l-0.66,0.26l-0.45-0.26l-0.66,0.26l-0.45-0.26l-0.66,0.26l-0.45-0.26l-0.66,0.26l-0.45-0.26l-0.66,0.26l-0.45-0.26
				l-0.66,0.26l-0.45-0.26l-0.66,0.26l-0.45-0.26l-0.66,0.26l-0.45-0.26l-0.66,0.26l-0.45-0.26l-0.66,0.26l-0.45-0.26l-0.66,0.26
				l-0.45-0.26l-0.66,0.26l-0.45-0.26l-0.66,0.26l-0.45-0.26l-0.66,0.26l-0.45-0.26l-0.66,0.26l-0.45-0.26l-0.66,0.26l-0.45-0.26
				l-0.66,0.26l-0.45-0.26l-0.66,0.26l-0.45-0.26l-0.66,0.26l-0.45-0.26l-0.66,0.26l-0.45-0.26l-0.66,0.26l-0.45-0.26l-0.66,0.26
				l-0.45-0.26l-0.66,0.26l-0.45-0.26l-0.66,0.26l-0.45-0.26l-0.66,0.26l-0.45-0.26l-0.66,0.26l-0.45-0.26l-0.66,0.26l-0.45-0.26
				l-0.66,0.26l-0.45-0.26l-0.66,0.26l-0.45-0.26l-0.66,0.26l-0.45-0.26l-0.66,0.26l-0.45-0.26l-0.66,0.26l-0.45-0.26l-0.66,0.26
				l-0.45-0.26l-0.66,0.26l-0.45-0.26l-0.66,0.26l-0.45-0.26l-0.66,0.26l-0.45-0.26l-0.66,0.26l-0.45-0.26l-0.66,0.26l-0.45-0.26
				l-0.66,0.26l-0.45-0.26l-0.66,0.26l-0.45-0.26l-0.66,0.26l-0.45-0.26l-0.66,0.26l-0.45-0.26l-0.66,0.26l-0.45-0.26l-0.66,0.26
				l-0.45-0.26l-0.66,0.26l-0.45-0.26l-0.66,0.26l-0.45-0.26l-0.66,0.26l-0.45-0.26l-0.66,0.26l-0.45-0.26l-0.66,0.26l-0.45-0.26
				l-0.66,0.26l-0.45-0.26l-0.66,0.26l-0.45-0.26l-0.66,0.26l-0.45-0.26l-0.66,0.26l-0.45-0.26l-0.66,0.26l-0.45-0.26l-0.66,0.26
				l-0.45-0.26l-190.78,75.16l50.48-84.08l200.97-33.36l-32.16-18.56l-0.86,0.14l-0.25-0.14l-0.86,0.14l-0.25-0.14l-0.86,0.14
				l-0.25-0.14l-0.86,0.14l-0.25-0.14l-0.86,0.14l-0.25-0.14l-0.86,0.14l-0.25-0.14l-0.86,0.14l-0.25-0.14l-0.86,0.14l-0.25-0.14
				l-0.86,0.14l-0.25-0.14l-0.86,0.14l-0.25-0.14l-0.86,0.14l-0.25-0.14l-0.86,0.14l-0.25-0.14l-0.86,0.14l-0.25-0.14l-0.86,0.14
				l-0.25-0.14l-0.86,0.14l-0.25-0.14l-0.86,0.14l-0.25-0.14l-0.86,0.14l-0.25-0.14l-0.86,0.14l-0.25-0.14l-0.86,0.14l-0.25-0.14
				l-0.86,0.14l-0.25-0.14l-0.86,0.14l-0.25-0.14l-0.86,0.14l-0.25-0.14l-0.86,0.14l-0.25-0.14l-0.86,0.14l-0.25-0.14l-0.86,0.14
				l-0.25-0.14l-0.86,0.14l-0.25-0.14l-0.86,0.14l-0.25-0.14l-0.86,0.14l-0.25-0.14l-0.86,0.14l-0.25-0.14l-0.86,0.14l-0.25-0.14
				l-0.86,0.14l-0.25-0.14l-0.86,0.14l-0.25-0.14l-0.86,0.14l-0.25-0.14l-0.86,0.14l-0.25-0.14l-0.86,0.14l-0.25-0.14l-0.86,0.14
				l-0.25-0.14l-0.86,0.14l-0.25-0.14l-0.86,0.14l-0.25-0.14l-0.86,0.14l-0.25-0.14l-0.86,0.14l-0.25-0.14l-0.86,0.14l-0.25-0.14
				l-0.86,0.14l-0.25-0.14l-0.86,0.14l-0.25-0.14l-0.86,0.14l-0.25-0.14l-0.86,0.14l-0.25-0.14l-0.86,0.14l-0.25-0.14l-0.86,0.14
				l-0.25-0.14l-0.86,0.14l-0.25-0.14l-0.86,0.14l-0.25-0.14l-0.86,0.14l-0.25-0.14l-0.86,0.14l-0.25-0.14l-0.86,0.14l-0.25-0.14
				l-0.86,0.14l-0.25-0.14l-0.86,0.14l-0.25-0.14l-0.86,0.14l-0.25-0.14l-0.86,0.14l-0.25-0.14l-0.86,0.14l-0.25-0.14l-0.86,0.14
				l-0.25-0.14l-0.86,0.14l-0.25-0.14l-0.86,0.14l-0.25-0.14l-0.86,0.14l-0.25-0.14l-0.86,0.14l-0.25-0.14l-0.86,0.14l-0.25-0.14
				l-0.86,0.14l-0.25-0.14l-0.86,0.14l-0.25-0.14l-0.86,0.14l-0.25-0.14l-0.86,0.14l-0.25-0.14l-0.86,0.14l-0.25-0.14l-0.86,0.14
				l-0.25-0.14l-0.86,0.14l-0.25-0.14l-0.86,0.14l-0.25-0.14l-0.86,0.14l-0.25-0.14l-0.86,0.14l-0.25-0.14l-0.86,0.14l-0.25-0.14
				l-0.86,0.14l-0.25-0.14l-0.86,0.14l-0.25-0.14l-0.86,0.14l-0.25-0.14l-0.86,0.14l-0.25-0.14l-0.86,0.14l-0.25-0.14l-0.86,0.14
				l-0.25-0.14l-0.86,0.14l-0.25-0.14l-0.86,0.14l-0.25-0.14l-0.86,0.14l-0.25-0.14l-0.86,0.14l-0.25-0.14l-0.86,0.14l-0.25-0.14
				l-0.86,0.14l-0.25-0.14l-0.86,0.14l-0.25-0.14l-0.86,0.14l-0.25-0.14l-0.86,0.14l-0.25-0.14l-0.86,0.14l-0.25-0.14l-0.86,0.14
				l-0.25-0.14l-0.86,0.14l-0.25-0.14l-0.86,0.14l-0.25-0.14l-0.86,0.14l-0.25-0.14l-0.86,0.14l-0.25-0.14l-0.86,0.14l-0.25-0.14
				l-0.86,0.14l-0.25-0.14l-0.86,0.14l-0.25-0.14l-0.86,0.14l-0.25-0.14l-0.86,0.14l-0.25-0.14l-0.86,0.14l-0.25-0.14l-0.86,0.14
				l-0.25-0.14l-0.86,0.14l-0.25-0.14l-0.86,0.14l-0.25-0.14l-0.86,0.14l-0.25-0.14l-0.86,0.14l-0.25-0.14l-0.86,0.14l-0.25-0.14
				l-0.86,0.14l-0.25-0.14l-0.86,0.14l-0.25-0.14l-0.86,0.14l-0.25-0.14l-0.86,0.14l-0.25-0.14l-0.86,0.14l-0.25-0.14l-0.86,0.14
				l-0.25-0.14l-0.86,0.14l-0.25-0.14l-0.86,0.14l-0.25-0.14l-0.86,0.14l-0.25-0.14l-0.86,0.14l-0.25-0.14l-0.86,0.14l-0.25-0.14
				l-0.86,0.14l-0.25-0.14l-0.86,0.14l-0.25-0.14l-0.86,0.14l-0.25-0.14l-23.84,4.01l82.08-47.7l-31.73-18.32l-0.55,0.32l-0.56-0.32
				l-0.55,0.32l-0.56-0.32l-0.55,0.32l-0.56-0.32l-0.55,0.32l-0.56-0.32l-0.55,0.32l-0.56-0.32l-0.55,0.32l-0.56-0.32l-0.55,0.32
				l-0.56-0.32l-0.55,0.32l-0.56-0.32l-0.55,0.32l-0.56-0.32l-0.55,0.32l-0.56-0.32l-0.55,0.32l-0.56-0.32l-0.55,0.32l-0.56-0.32
				l-0.55,0.32l-0.56-0.32l-0.55,0.32l-0.56-0.32l-0.55,0.32l-0.56-0.32l-0.55,0.32l-0.56-0.32l-0.55,0.32l-0.56-0.32l-0.55,0.32
				l-0.56-0.32l-0.55,0.32l-0.56-0.32l-0.55,0.32l-0.56-0.32l-0.55,0.32l-0.56-0.32l-0.55,0.32l-0.56-0.32l-0.55,0.32l-0.56-0.32
				l-0.55,0.32l-0.56-0.32l-0.55,0.32l-0.56-0.32l-0.55,0.32l-0.56-0.32l-0.55,0.32l-0.56-0.32l-0.55,0.32l-0.56-0.32l-0.55,0.32
				l-0.56-0.32l-0.55,0.32l-0.56-0.32l-0.55,0.32l-0.56-0.32l-0.55,0.32l-0.56-0.32l-0.55,0.32l-0.56-0.32l-0.55,0.32l-0.56-0.32
				l-0.55,0.32l-0.56-0.32l-0.55,0.32l-0.56-0.32l-0.55,0.32l-0.56-0.32l-0.55,0.32l-0.56-0.32l-0.55,0.32l-0.56-0.32l-0.55,0.32
				l-0.56-0.32l-0.55,0.32l-0.56-0.32l-0.55,0.32l-0.56-0.32l-0.55,0.32l-0.56-0.32l-0.55,0.32l-0.56-0.32l-0.55,0.32l-0.56-0.32
				l-0.55,0.32l-0.56-0.32l-0.55,0.32l-0.56-0.32l-0.55,0.32l-0.56-0.32l-0.55,0.32l-0.56-0.32l-0.55,0.32l-0.56-0.32l-0.55,0.32
				l-0.56-0.32l-0.55,0.32l-0.56-0.32l-0.55,0.32l-0.56-0.32l-0.55,0.32l-0.56-0.32l-0.55,0.32l-0.56-0.32l-0.55,0.32l-0.56-0.32
				l-0.55,0.32l-0.56-0.32l-0.55,0.32l-0.56-0.32l-0.55,0.32l-0.56-0.32l-0.55,0.32l-0.56-0.32l-0.55,0.32l-0.56-0.32l-0.55,0.32
				l-0.56-0.32l-0.55,0.32l-0.56-0.32l-0.55,0.32l-0.45-0.26c15.03-18.99,9.3-38.79-22.07-56.9
				c-20.52-11.84-42.35-17.27-64.23-17.07c-0.37,0-0.74,0-1.11,0c-0.37,0-0.74,0-1.11,0c-0.37,0-0.74,0-1.11,0
				c-0.37,0-0.74,0-1.11,0c-0.37,0-0.74,0-1.11,0c-0.37,0-0.74,0-1.11,0c-0.37,0-0.74,0-1.11,0c-0.37,0-0.74,0-1.11,0
				c-0.37,0-0.74,0-1.11,0c-0.37,0-0.74,0-1.11,0c-0.37,0-0.74,0-1.11,0c-0.37,0-0.74,0-1.11,0c-0.37,0-0.74,0-1.11,0
				c-0.37,0-0.74,0-1.11,0c-0.37,0-0.74,0-1.11,0c-0.37,0-0.74,0-1.11,0c-0.37,0-0.74,0-1.11,0c-0.37,0-0.74,0-1.11,0
				c-0.37,0-0.74,0-1.11,0c-0.37,0-0.74,0-1.11,0c-0.37,0-0.74,0-1.11,0c-0.37,0-0.74,0-1.11,0c-0.37,0-0.74,0-1.11,0
				c-0.37,0-0.74,0-1.11,0c-0.37,0-0.74,0-1.11,0c-0.37,0-0.74,0-1.11,0c-0.37,0-0.74,0-1.11,0c-0.37,0-0.74,0-1.11,0
				c-0.37,0-0.74,0-1.11,0c-0.37,0-0.74,0-1.11,0c-0.37,0-0.74,0-1.11,0c-0.37,0-0.74,0-1.11,0c-0.37,0-0.74,0-1.11,0
				c-0.37,0-0.74,0-1.11,0c-0.37,0-0.74,0-1.11,0c-0.37,0-0.74,0-1.11,0c-0.37,0-0.74,0-1.11,0c-0.37,0-0.74,0-1.11,0
				c-0.37,0-0.74,0-1.11,0c-0.37,0-0.74,0-1.11,0c-0.37,0-0.74,0-1.11,0c-0.37,0-0.74,0-1.11,0c-0.37,0-0.74,0-1.11,0
				c-0.37,0-0.74,0-1.11,0c-0.37,0-0.74,0-1.11,0c-0.37,0-0.74,0-1.11,0c-0.37,0-0.74,0-1.11,0c-0.37,0-0.74,0-1.11,0
				c-0.37,0-0.74,0-1.11,0c-0.37,0-0.74,0-1.11,0c-0.37,0-0.74,0-1.11,0c-0.37,0-0.74,0-1.11,0c-0.37,0-0.74,0-1.11,0
				c-0.37,0-0.74,0-1.11,0c-0.37,0-0.74,0-1.11,0c-0.37,0-0.74,0-1.11,0c-0.37,0-0.74,0-1.11,0c-0.37,0-0.74,0-1.11,0
				c-0.37,0-0.74,0-1.11,0c-0.37,0-0.74,0-1.11,0c-0.37,0-0.74,0-1.11,0c-0.37,0-0.74,0-1.11,0c-0.37,0-0.74,0-1.11,0
				c-0.37,0-0.74,0-1.11,0c-0.37,0-0.74,0-1.11,0c-0.37,0-0.74,0-1.11,0c-0.37,0-0.74,0-1.11,0c-0.37,0-0.74,0-1.11,0
				c-0.37,0-0.74,0-1.11,0c-0.37,0-0.74,0-1.11,0c-0.37,0-0.74,0-1.11,0c-0.37,0-0.74,0-1.11,0c-0.37,0-0.74,0-1.11,0
				c-0.37,0-0.74,0-1.11,0c-0.37,0-0.74,0-1.11,0c-0.37,0-0.74,0-1.11,0c-0.37,0-0.74,0-1.11,0c-0.37,0-0.74,0-1.11,0
				c-0.37,0-0.74,0-1.11,0c-0.37,0-0.74,0-1.11,0c-0.37,0-0.74,0-1.11,0c-0.37,0-0.74,0-1.11,0c-0.37,0-0.74,0-1.11,0
				c-0.37,0-0.74,0-1.11,0c-0.37,0-0.74,0-1.11,0c-0.37,0-0.74,0-1.11,0c-0.37,0-0.74,0-1.11,0c-0.37,0-0.74,0-1.11,0
				c-0.37,0-0.74,0-1.11,0c-0.37,0-0.74,0-1.11,0c-0.37,0-0.74,0-1.11,0c-0.37,0-0.74,0-1.11,0c-0.37,0-0.74,0-1.11,0
				c-0.37,0-0.74,0-1.11,0c-0.37,0-0.74,0-1.11,0c-0.37,0-0.74,0-1.11,0c-0.37,0-0.74,0-1.11,0c-0.37,0-0.74,0-1.11,0
				c-0.37,0-0.74,0-1.11,0c-0.37,0-0.74,0-1.11,0c-0.37,0-0.74,0-1.11,0c-0.37,0-0.74,0-1.11,0c-0.37,0-0.74,0-1.11,0
				c-0.37,0-0.74,0-1.11,0c-0.37,0-0.74,0-1.11,0c-0.37,0-0.74,0-1.11,0c-0.37,0-0.74,0-1.11,0c-0.37,0-0.74,0-1.11,0
				c-0.37,0-0.74,0-1.11,0c-0.37,0-0.74,0-1.11,0c-0.37,0-0.74,0-1.11,0c-0.37,0-0.74,0-1.11,0c-0.37,0-0.74,0-1.11,0
				c-0.37,0-0.74,0-1.11,0c-0.37,0-0.74,0-1.11,0c-0.37,0-0.74,0-1.11,0c-0.37,0-0.74,0-1.11,0c-0.37,0-0.74,0-1.11,0
				c-0.37,0-0.74,0-1.11,0c-0.37,0-0.74,0-1.11,0c-24.92,0.01-49.92,7.33-73.13,20.82l-146.34,85.04
				c-42.84,24.9-49.56,53.8-6.03,78.94c20.7,11.95,42.72,17.38,64.7,17.18c0.37,0,0.74,0,1.11,0c0.37,0,0.74,0,1.11,0
				c0.37,0,0.74,0,1.11,0c0.37,0,0.74,0,1.11,0c0.37,0,0.74,0,1.11,0c0.37,0,0.74,0,1.11,0c0.37,0,0.74,0,1.11,0
				c0.37,0,0.74,0,1.11,0c0.37,0,0.74,0,1.11,0c0.37,0,0.74,0,1.11,0c0.37,0,0.74,0,1.11,0c0.37,0,0.74,0,1.11,0
				c0.37,0,0.74,0,1.11,0c0.37,0,0.74,0,1.11,0c0.37,0,0.74,0,1.11,0c0.37,0,0.74,0,1.11,0c0.37,0,0.74,0,1.11,0
				c0.37,0,0.74,0,1.11,0c0.37,0,0.74,0,1.11,0c0.37,0,0.74,0,1.11,0c0.37,0,0.74,0,1.11,0c0.37,0,0.74,0,1.11,0
				c0.37,0,0.74,0,1.11,0c0.37,0,0.74,0,1.11,0c0.37,0,0.74,0,1.11,0c0.37,0,0.74,0,1.11,0c0.37,0,0.74,0,1.11,0
				c0.37,0,0.74,0,1.11,0c0.37,0,0.74,0,1.11,0c0.37,0,0.74,0,1.11,0c0.37,0,0.74,0,1.11,0c0.37,0,0.74,0,1.11,0
				c0.37,0,0.74,0,1.11,0c0.37,0,0.74,0,1.11,0c0.37,0,0.74,0,1.11,0c0.37,0,0.74,0,1.11,0c0.37,0,0.74,0,1.11,0
				c0.37,0,0.74,0,1.11,0c0.37,0,0.74,0,1.11,0c0.37,0,0.74,0,1.11,0c0.37,0,0.74,0,1.11,0c0.37,0,0.74,0,1.11,0
				c0.37,0,0.74,0,1.11,0c0.37,0,0.74,0,1.11,0c0.37,0,0.74,0,1.11,0c0.37,0,0.74,0,1.11,0c0.37,0,0.74,0,1.11,0
				c0.37,0,0.74,0,1.11,0c0.37,0,0.74,0,1.11,0c0.37,0,0.74,0,1.11,0c0.37,0,0.74,0,1.11,0c0.37,0,0.74,0,1.11,0
				c0.37,0,0.74,0,1.11,0c0.37,0,0.74,0,1.11,0c0.37,0,0.74,0,1.11,0c0.37,0,0.74,0,1.11,0c0.37,0,0.74,0,1.11,0
				c0.37,0,0.74,0,1.11,0c0.37,0,0.74,0,1.11,0c0.37,0,0.74,0,1.11,0c0.37,0,0.74,0,1.11,0c0.37,0,0.74,0,1.11,0
				c0.37,0,0.74,0,1.11,0c0.37,0,0.74,0,1.11,0c0.37,0,0.74,0,1.11,0c0.37,0,0.74,0,1.11,0c0.37,0,0.74,0,1.11,0
				c0.37,0,0.74,0,1.11,0c0.37,0,0.74,0,1.11,0c0.37,0,0.74,0,1.11,0c0.37,0,0.74,0,1.11,0c0.37,0,0.74,0,1.11,0
				c0.37,0,0.74,0,1.11,0c0.37,0,0.74,0,1.11,0c0.37,0,0.74,0,1.11,0c0.37,0,0.74,0,1.11,0c0.37,0,0.74,0,1.11,0
				c0.37,0,0.74,0,1.11,0c0.37,0,0.74,0,1.11,0c0.37,0,0.74,0,1.11,0c0.37,0,0.74,0,1.11,0c0.37,0,0.74,0,1.11,0
				c0.37,0,0.74,0,1.11,0c0.37,0,0.74,0,1.11,0c0.37,0,0.74,0,1.11,0c0.37,0,0.74,0,1.11,0c0.37,0,0.74,0,1.11,0
				c0.02,0,0.03,0,0.05,0l-62.59,36.37l31.73,18.32l0.55-0.32l0.56,0.32l0.55-0.32l0.56,0.32l0.55-0.32l0.56,0.32l0.55-0.32
				l0.56,0.32l0.55-0.32l0.56,0.32l0.55-0.32l0.56,0.32l0.55-0.32l0.56,0.32l0.55-0.32l0.56,0.32l0.55-0.32l0.56,0.32l0.55-0.32
				l0.56,0.32l0.55-0.32l0.56,0.32l0.55-0.32l0.56,0.32l0.55-0.32l0.56,0.32l0.55-0.32l0.56,0.32l0.55-0.32l0.56,0.32l0.55-0.32
				l0.56,0.32l0.55-0.32l0.56,0.32l0.55-0.32l0.56,0.32l0.55-0.32l0.56,0.32l0.55-0.32l0.56,0.32l0.55-0.32l0.56,0.32l0.55-0.32
				l0.56,0.32l0.55-0.32l0.56,0.32l0.55-0.32l0.56,0.32l0.55-0.32l0.56,0.32l0.55-0.32l0.56,0.32l0.55-0.32l0.56,0.32l0.55-0.32
				l0.56,0.32l0.55-0.32l0.56,0.32l0.55-0.32l0.56,0.32l0.55-0.32l0.56,0.32l0.55-0.32l0.56,0.32l0.55-0.32l0.56,0.32l0.55-0.32
				l0.56,0.32l0.55-0.32l0.56,0.32l0.55-0.32l0.56,0.32l0.55-0.32l0.56,0.32l0.55-0.32l0.56,0.32l0.55-0.32l0.56,0.32l0.55-0.32
				l0.56,0.32l0.55-0.32l0.56,0.32l0.55-0.32l0.56,0.32l0.55-0.32l0.56,0.32l0.55-0.32l0.56,0.32l0.55-0.32l0.56,0.32l0.55-0.32
				l0.56,0.32l0.55-0.32l0.56,0.32l0.55-0.32l0.56,0.32l0.55-0.32l0.56,0.32l0.55-0.32l0.56,0.32l0.55-0.32l0.56,0.32l0.55-0.32
				l0.56,0.32l0.55-0.32l0.56,0.32l0.55-0.32l0.56,0.32l0.55-0.32l0.56,0.32l0.55-0.32l0.56,0.32l0.55-0.32l0.56,0.32l0.55-0.32
				l0.56,0.32l0.55-0.32l0.56,0.32l0.55-0.32l0.56,0.32l0.55-0.32l0.56,0.32l0.55-0.32l0.56,0.32l0.55-0.32l0.56,0.32l0.55-0.32
				l0.56,0.32l0.55-0.32l0.56,0.32l0.55-0.32l0.56,0.32l0.55-0.32l0.56,0.32l0.55-0.32l0.56,0.32l0.55-0.32l0.56,0.32l0.55-0.32
				l0.56,0.32l0.55-0.32l0.56,0.32l0.55-0.32l0.56,0.32l0.55-0.32l0.56,0.32l0.55-0.32l0.56,0.32l0.55-0.32l0.56,0.32l0.55-0.32
				l0.56,0.32l0.55-0.32l0.56,0.32l0.55-0.32l0.56,0.32l0.55-0.32l0.56,0.32l0.55-0.32l0.56,0.32l0.55-0.32l0.56,0.32l0.55-0.32
				l0.56,0.32l0.55-0.32l0.56,0.32l0.55-0.32l0.56,0.32l0.55-0.32l0.56,0.32l0.55-0.32l0.56,0.32l0.55-0.32l0.56,0.32l0.55-0.32
				l0.56,0.32l0.55-0.32l0.56,0.32l0.55-0.32l0.56,0.32l0.55-0.32l0.56,0.32l0.55-0.32l0.56,0.32l0.55-0.32l0.56,0.32l0.55-0.32
				l0.33,0.19l-26.1,45l32.57,18.8l0.28-0.47l0.82,0.47l0.28-0.47l0.82,0.47l0.28-0.47l0.82,0.47l0.28-0.47l0.82,0.47l0.28-0.47
				l0.82,0.47l0.28-0.47l0.82,0.47l0.28-0.47l0.82,0.47l0.28-0.47l0.82,0.47l0.28-0.47l0.82,0.47l0.28-0.47l0.82,0.47l0.28-0.47
				l0.82,0.47l0.28-0.47l0.82,0.47l0.28-0.47l0.82,0.47l0.28-0.47l0.82,0.47l0.28-0.47l0.82,0.47l0.28-0.47l0.82,0.47l0.28-0.47
				l0.82,0.47l0.28-0.47l0.82,0.47l0.28-0.47l0.82,0.47l0.28-0.47l0.82,0.47l0.28-0.47l0.82,0.47l0.28-0.47l0.82,0.47l0.28-0.47
				l0.82,0.47l0.28-0.47l0.82,0.47l0.28-0.47l0.82,0.47l0.28-0.47l0.82,0.47l0.28-0.47l0.82,0.47l0.28-0.47l0.82,0.47l0.28-0.47
				l0.82,0.47l0.28-0.47l0.82,0.47l0.28-0.47l0.82,0.47l0.28-0.47l0.82,0.47l0.28-0.47l0.82,0.47l0.28-0.47l0.82,0.47l0.28-0.47
				l0.82,0.47l0.28-0.47l0.82,0.47l0.28-0.47l0.48,0.28l-24.34,9.59l29.3,16.92l0.66-0.26l0.45,0.26l0.66-0.26l0.45,0.26l0.66-0.26
				l0.45,0.26l0.66-0.26l0.45,0.26l0.66-0.26l0.45,0.26l0.66-0.26l0.45,0.26l0.66-0.26l0.45,0.26l0.66-0.26l0.45,0.26l0.66-0.26
				l0.45,0.26l0.66-0.26l0.45,0.26l0.66-0.26l0.45,0.26l0.66-0.26l0.45,0.26l0.66-0.26l0.45,0.26l0.66-0.26l0.45,0.26l0.66-0.26
				l0.45,0.26l0.66-0.26l0.45,0.26l0.66-0.26l0.45,0.26l0.66-0.26l0.45,0.26l0.66-0.26l0.45,0.26l0.66-0.26l0.45,0.26l0.66-0.26
				l0.45,0.26l0.66-0.26l0.45,0.26l0.66-0.26l0.45,0.26l0.66-0.26l0.45,0.26l0.66-0.26l0.45,0.26l0.66-0.26l0.45,0.26l0.66-0.26
				l0.45,0.26l0.66-0.26l0.45,0.26l0.66-0.26l0.45,0.26l0.66-0.26l0.45,0.26l0.66-0.26l0.45,0.26l0.66-0.26l0.45,0.26l0.66-0.26
				l0.45,0.26l0.66-0.26l0.45,0.26l0.66-0.26l0.45,0.26l0.66-0.26l0.45,0.26l0.66-0.26l0.45,0.26l0.66-0.26l0.45,0.26l0.66-0.26
				l0.45,0.26l0.66-0.26l0.45,0.26l0.66-0.26l0.45,0.26l0.66-0.26l0.45,0.26l0.66-0.26l0.45,0.26l0.66-0.26l0.45,0.26l0.66-0.26
				l0.45,0.26l0.66-0.26l0.45,0.26l0.66-0.26l0.45,0.26l0.66-0.26l0.45,0.26l0.66-0.26l0.45,0.26l0.66-0.26l0.45,0.26l0.66-0.26
				l0.45,0.26l0.66-0.26l0.45,0.26l0.66-0.26l0.45,0.26l0.66-0.26l0.45,0.26l0.66-0.26l0.45,0.26l0.66-0.26l0.45,0.26l0.66-0.26
				l0.45,0.26l0.66-0.26l0.45,0.26l0.66-0.26l0.45,0.26l0.66-0.26l0.45,0.26l0.66-0.26l0.45,0.26l0.66-0.26l0.45,0.26l0.66-0.26
				l0.45,0.26l0.66-0.26l0.45,0.26l0.66-0.26l0.45,0.26l0.66-0.26l0.45,0.26l0.66-0.26l0.45,0.26l0.66-0.26l0.45,0.26l0.66-0.26
				l0.45,0.26l0.66-0.26l0.45,0.26l0.66-0.26l0.45,0.26l0.66-0.26l0.45,0.26l0.66-0.26l0.45,0.26l0.66-0.26l0.45,0.26l0.66-0.26
				l0.45,0.26l0.66-0.26l0.45,0.26l0.66-0.26l0.45,0.26l0.66-0.26l0.45,0.26l0.66-0.26l0.45,0.26l0.66-0.26l0.45,0.26l0.66-0.26
				l0.45,0.26l0.66-0.26l0.45,0.26l0.66-0.26l0.45,0.26l0.66-0.26l0.45,0.26l0.66-0.26l0.45,0.26l0.66-0.26l0.45,0.26l0.66-0.26
				l0.45,0.26l0.66-0.26l0.45,0.26l0.66-0.26l0.45,0.26l0.66-0.26l0.45,0.26l0.66-0.26l0.45,0.26l0.66-0.26l0.45,0.26l0.66-0.26
				l0.45,0.26l0.66-0.26l0.45,0.26l0.66-0.26l0.45,0.26l0.66-0.26l0.45,0.26l0.66-0.26l0.45,0.26l0.66-0.26l0.45,0.26l0.66-0.26
				l0.45,0.26l0.66-0.26l0.45,0.26l0.66-0.26l0.45,0.26l0.66-0.26l0.45,0.26l0.66-0.26l0.45,0.26l0.23-0.09l25.78,14.89
				l-46.02,39.47l31.73,18.32l0.45-0.38l0.66,0.38l0.45-0.38l0.66,0.38l0.45-0.38l0.66,0.38l0.45-0.38l0.66,0.38l0.45-0.38
				l0.66,0.38l0.45-0.38l0.66,0.38l0.45-0.38l0.66,0.38l0.45-0.38l0.66,0.38l0.45-0.38l0.66,0.38l0.45-0.38l0.66,0.38l0.45-0.38
				l0.66,0.38l0.45-0.38l0.66,0.38l0.45-0.38l0.66,0.38l0.45-0.38l0.66,0.38l0.45-0.38l0.66,0.38l0.45-0.38l0.66,0.38l0.45-0.38
				l0.66,0.38l0.45-0.38l0.66,0.38l0.45-0.38l0.66,0.38l0.45-0.38l0.66,0.38l0.45-0.38l0.66,0.38l0.45-0.38l0.66,0.38l0.45-0.38
				l0.66,0.38l0.45-0.38l0.66,0.38l0.45-0.38l0.66,0.38l0.45-0.38l0.66,0.38l0.45-0.38l0.66,0.38l0.45-0.38l0.66,0.38l0.45-0.38
				l0.66,0.38l0.45-0.38l0.66,0.38l0.45-0.38l0.66,0.38l0.45-0.38l0.66,0.38l0.45-0.38l0.66,0.38l0.45-0.38l0.66,0.38l0.45-0.38
				l0.66,0.38l0.45-0.38l0.66,0.38l0.45-0.38l0.66,0.38l0.45-0.38l0.66,0.38l0.45-0.38l0.66,0.38l0.45-0.38l0.66,0.38l0.45-0.38
				l0.66,0.38l0.45-0.38l0.66,0.38l0.45-0.38l0.66,0.38l0.45-0.38l0.66,0.38l0.45-0.38l0.66,0.38l0.45-0.38l0.66,0.38l0.45-0.38
				l0.66,0.38l0.45-0.38l0.66,0.38l0.45-0.38l0.66,0.38l0.45-0.38l0.66,0.38l0.45-0.38l0.66,0.38l0.45-0.38l0.66,0.38l0.45-0.38
				l0.66,0.38l0.45-0.38l0.66,0.38l0.45-0.38l0.66,0.38l0.45-0.38l0.66,0.38l0.45-0.38l0.66,0.38l0.45-0.38l0.66,0.38l0.45-0.38
				l0.66,0.38l0.45-0.38l0.66,0.38l0.45-0.38l0.66,0.38l0.45-0.38l0.66,0.38l0.45-0.38l0.66,0.38l0.45-0.38l0.66,0.38l0.45-0.38
				l0.66,0.38l0.45-0.38l0.66,0.38l0.45-0.38l0.66,0.38l0.45-0.38l0.66,0.38l0.45-0.38l0.66,0.38l0.45-0.38l0.66,0.38l0.45-0.38
				l0.66,0.38l0.45-0.38l0.66,0.38l0.45-0.38l0.66,0.38l0.45-0.38l0.66,0.38l0.45-0.38l0.66,0.38l0.45-0.38l0.66,0.38l0.45-0.38
				l0.66,0.38l0.45-0.38l0.66,0.38l0.45-0.38l0.66,0.38l0.45-0.38l0.66,0.38l0.45-0.38l0.66,0.38l0.45-0.38l0.66,0.38l0.45-0.38
				l0.66,0.38l0.45-0.38l0.66,0.38l0.45-0.38l0.66,0.38l0.45-0.38l0.66,0.38l0.45-0.38l0.66,0.38l0.45-0.38l0.66,0.38l0.45-0.38
				l0.66,0.38l0.45-0.38l0.66,0.38l0.45-0.38l0.66,0.38l0.45-0.38l0.66,0.38l0.45-0.38l0.66,0.38l0.45-0.38l0.66,0.38l0.45-0.38
				l0.66,0.38l0.45-0.38l0.66,0.38l0.45-0.38l0.66,0.38l0.45-0.38l0.66,0.38l0.45-0.38l0.66,0.38l0.45-0.38l0.66,0.38l0.45-0.38
				l0.66,0.38l0.45-0.38l0.66,0.38l0.45-0.38l0.66,0.38l0.45-0.38l0.66,0.38l0.45-0.38l0.66,0.38l0.45-0.38l0.66,0.38l0.45-0.38
				l0.66,0.38l0.45-0.38l0.66,0.38l0.45-0.38l0.66,0.38l0.45-0.38l0.66,0.38l0.45-0.38l0.66,0.38l0.45-0.38l0.66,0.38l0.45-0.38
				l0.66,0.38l0.45-0.38l0.66,0.38l0.45-0.38l0.66,0.38l0.45-0.38l0.66,0.38l0.45-0.38l0.66,0.38l0.45-0.38l0.66,0.38l0.45-0.38
				l0.66,0.38l0.45-0.38l0.66,0.38l0.45-0.38l0.66,0.38l113.88-97.67l-71.05,82.17l-101.46,58.96l31.32,18.08l0.55-0.32l0.56,0.32
				l0.55-0.32l0.56,0.32l0.55-0.32l0.56,0.32l0.55-0.32l0.56,0.32l0.55-0.32l0.56,0.32l0.55-0.32l0.56,0.32l0.55-0.32l0.56,0.32
				l0.55-0.32l0.56,0.32l0.55-0.32l0.56,0.32l0.55-0.32l0.56,0.32l0.55-0.32l0.56,0.32l0.55-0.32l0.56,0.32l0.55-0.32l0.56,0.32
				l0.55-0.32l0.56,0.32l0.55-0.32l0.56,0.32l0.55-0.32l0.56,0.32l0.55-0.32l0.56,0.32l0.55-0.32l0.56,0.32l0.55-0.32l0.56,0.32
				l0.55-0.32l0.56,0.32l0.55-0.32l0.56,0.32l0.55-0.32l0.56,0.32l0.55-0.32l0.56,0.32l0.55-0.32l0.56,0.32l0.55-0.32l0.56,0.32
				l0.55-0.32l0.56,0.32l0.55-0.32l0.56,0.32l0.55-0.32l0.56,0.32l0.55-0.32l0.56,0.32l0.55-0.32l0.56,0.32l0.55-0.32l0.56,0.32
				l0.55-0.32l0.56,0.32l0.55-0.32l0.56,0.32l0.55-0.32l0.56,0.32l0.55-0.32l0.56,0.32l0.55-0.32l0.56,0.32l0.55-0.32l0.56,0.32
				l0.55-0.32l0.56,0.32l0.55-0.32l0.56,0.32l0.55-0.32l0.56,0.32l0.55-0.32l0.56,0.32l0.55-0.32l0.56,0.32l0.55-0.32l0.56,0.32
				l0.55-0.32l0.56,0.32l0.55-0.32l0.56,0.32l0.55-0.32l0.56,0.32l0.55-0.32l0.56,0.32l0.55-0.32l0.56,0.32l0.55-0.32l0.56,0.32
				l0.55-0.32l0.56,0.32l0.55-0.32l0.56,0.32l0.55-0.32l0.56,0.32l0.55-0.32l0.56,0.32l0.55-0.32l0.56,0.32l0.55-0.32l0.56,0.32
				l0.55-0.32l0.56,0.32l0.55-0.32l0.56,0.32l0.55-0.32l0.56,0.32l0.55-0.32l0.56,0.32l0.55-0.32l0.56,0.32l0.55-0.32l0.56,0.32
				l0.55-0.32l0.56,0.32l0.55-0.32l0.56,0.32l0.55-0.32l0.56,0.32l0.55-0.32l0.56,0.32l0.55-0.32l0.56,0.32l0.55-0.32l0.56,0.32
				l0.55-0.32l0.56,0.32l0.55-0.32l0.56,0.32l0.55-0.32l0.56,0.32l0.55-0.32l0.56,0.32l0.55-0.32l0.56,0.32l0.55-0.32l0.56,0.32
				l0.55-0.32l0.56,0.32l0.55-0.32l0.56,0.32l0.55-0.32l0.56,0.32l0.55-0.32l0.56,0.32l0.55-0.32l0.56,0.32l0.55-0.32l0.56,0.32
				l0.55-0.32l0.56,0.32l0.55-0.32l0.56,0.32l0.55-0.32l0.56,0.32l0.55-0.32l0.56,0.32l0.55-0.32l0.56,0.32l0.55-0.32l0.56,0.32
				l0.55-0.32l0.56,0.32l0.55-0.32l0.56,0.32l0.55-0.32l0.56,0.32l0.55-0.32l0.56,0.32l0.55-0.32l0.56,0.32l0.55-0.32l0.56,0.32
				l0.55-0.32l0.56,0.32l0.55-0.32l0.56,0.32l0.55-0.32l0.56,0.32l0.55-0.32l0.56,0.32l0.55-0.32l0.56,0.32l0.55-0.32l0.56,0.32
				l0.55-0.32l0.56,0.32l0.55-0.32l0.56,0.32l0.55-0.32l0.56,0.32l0.55-0.32l0.56,0.32l0.55-0.32l0.56,0.32l0.55-0.32l0.56,0.32
				l0.55-0.32l0.56,0.32l0.55-0.32l0.56,0.32l0.55-0.32l0.56,0.32l0.55-0.32l0.56,0.32l0.55-0.32l0.56,0.32l0.55-0.32l0.56,0.32
				l0.55-0.32l0.56,0.32l0.55-0.32l0.56,0.32l0.55-0.32l0.56,0.32l0.55-0.32l0.56,0.32l0.55-0.32l0.56,0.32l0.55-0.32l0.56,0.32
				l0.55-0.32l0.56,0.32l0.55-0.32l0.56,0.32l0.55-0.32l0.56,0.32l0.55-0.32l0.56,0.32l0.55-0.32l0.56,0.32l0.55-0.32l0.56,0.32
				l101.46-58.96l242.13-70.48L1848.08,1745.36z M1135.21,1488.38l-90.55,52.62c2.21-1.56,4.66-3.13,7.35-4.7l90.57-52.63
				C1140.36,1485.24,1137.91,1486.81,1135.21,1488.38z M1164.04,1731.27l0.03,0.02l-0.05,0.02L1164.04,1731.27z"/>
		</g>
		<path class="st15" d="M605.1,954.57c0.02-6.09-4.6-12.02-14.48-17.72c-1.42-0.82-2.84-1.57-4.28-2.27
			c-0.49-0.24-0.99-0.43-1.49-0.66c-0.93-0.42-1.86-0.86-2.79-1.23c-0.01-0.01-0.03-0.01-0.04-0.02c-0.05-0.02-0.1-0.03-0.14-0.05
			c-1.25-0.49-2.51-0.92-3.77-1.32c-0.3-0.1-0.61-0.19-0.91-0.28c-0.27-0.08-0.53-0.17-0.8-0.25c-0.59-0.17-1.18-0.29-1.77-0.44
			c-0.64-0.16-1.27-0.33-1.91-0.47c-0.17-0.04-0.34-0.09-0.51-0.13c-0.94-0.2-1.89-0.35-2.83-0.49c-0.24-0.04-0.48-0.09-0.73-0.13
			c-0.04-0.01-0.08-0.02-0.12-0.02c-1.15-0.16-2.31-0.29-3.47-0.39c-0.16-0.01-0.31-0.01-0.47-0.03c-0.38-0.03-0.76-0.04-1.14-0.06
			c-0.62-0.03-1.24-0.08-1.86-0.1c-0.37-0.01-0.74,0.01-1.11,0.01c-0.5,0-1,0-1.5,0.01c-0.36,0.01-0.72-0.01-1.08,0.01
			c-0.5,0.02-1,0.07-1.5,0.1c-0.64,0.04-1.29,0.07-1.93,0.13c-0.26,0.02-0.52,0.03-0.79,0.05c-0.41,0.04-0.82,0.12-1.23,0.17
			c-1.05,0.13-2.11,0.27-3.16,0.45c-0.33,0.05-0.65,0.08-0.97,0.14c-0.35,0.06-0.71,0.16-1.07,0.23c-0.92,0.18-1.84,0.38-2.76,0.6
			c-0.7,0.16-1.4,0.33-2.1,0.52c-0.94,0.25-1.87,0.53-2.81,0.81c-0.46,0.14-0.92,0.25-1.38,0.4c-0.23,0.08-0.47,0.17-0.7,0.25
			c-0.93,0.31-1.87,0.65-2.8,1c-0.68,0.25-1.36,0.49-2.05,0.77c-0.98,0.39-1.96,0.82-2.94,1.25c-0.64,0.28-1.28,0.54-1.92,0.84
			c-1.08,0.5-2.17,1.04-3.25,1.59c-0.54,0.27-1.08,0.52-1.63,0.8c-1.63,0.85-3.25,1.74-4.88,2.69c-0.29,0.17-0.58,0.34-0.87,0.51
			c-0.63,0.38-1.22,0.76-1.82,1.14c-0.3,0.19-0.63,0.39-0.92,0.58c-1.02,0.67-2.01,1.35-2.94,2.04c-0.16,0.12-0.3,0.24-0.46,0.35
			c-0.76,0.57-1.51,1.15-2.21,1.73c-0.29,0.24-0.57,0.49-0.85,0.74c-0.38,0.33-0.78,0.65-1.14,0.98c-0.12,0.11-0.22,0.22-0.33,0.33
			c-0.61,0.57-1.18,1.14-1.74,1.71c-0.26,0.27-0.53,0.53-0.78,0.79c-0.78,0.84-1.51,1.69-2.19,2.55c0,0-0.01,0.01-0.01,0.01
			c-0.12,0.16-0.22,0.31-0.34,0.47c-0.49,0.64-0.97,1.29-1.41,1.94c-0.2,0.29-0.36,0.59-0.55,0.89c-0.33,0.52-0.67,1.04-0.97,1.57
			c-0.01,0.02-0.03,0.04-0.04,0.06c-0.16,0.29-0.3,0.59-0.45,0.88c-0.27,0.52-0.56,1.04-0.8,1.56c-0.17,0.35-0.3,0.71-0.46,1.07
			c-0.21,0.49-0.43,0.98-0.61,1.47c-0.02,0.05-0.04,0.1-0.06,0.15c-0.08,0.22-0.14,0.44-0.21,0.66c-0.23,0.66-0.46,1.33-0.65,2
			c-0.1,0.35-0.19,0.69-0.28,1.04c-0.16,0.6-0.3,1.21-0.43,1.82c-0.04,0.17-0.09,0.34-0.12,0.52c-0.03,0.15-0.04,0.31-0.07,0.46
			c-0.21,1.11-0.38,2.22-0.5,3.35c0,0.04-0.01,0.07-0.02,0.11c-0.12,1.17-0.19,2.35-0.23,3.53c0,0.14-0.02,0.27-0.03,0.41
			c-0.01,0.47-0.02,0.94-0.02,1.41l-0.31,109.07c0-0.61,0.03-1.21,0.05-1.82c0.04-1.18,0.11-2.36,0.23-3.53
			c0-0.04,0.01-0.07,0.02-0.11c0.12-1.12,0.29-2.24,0.5-3.35c0.06-0.33,0.12-0.65,0.19-0.98c0.13-0.61,0.27-1.21,0.43-1.82
			c0.09-0.35,0.18-0.69,0.28-1.04c0.19-0.67,0.42-1.34,0.65-2c0.09-0.27,0.18-0.54,0.28-0.81c0.19-0.49,0.4-0.97,0.61-1.46
			c0.15-0.36,0.29-0.72,0.46-1.08c0.24-0.52,0.52-1.03,0.79-1.54c0.17-0.32,0.32-0.65,0.5-0.97c0.3-0.52,0.63-1.04,0.96-1.55
			c0.19-0.3,0.36-0.6,0.56-0.9c0.44-0.65,0.92-1.29,1.41-1.94c0.12-0.16,0.23-0.32,0.35-0.48c0.68-0.86,1.41-1.71,2.19-2.55
			c0.25-0.27,0.52-0.53,0.78-0.79c0.56-0.57,1.13-1.15,1.74-1.71c0.47-0.44,0.97-0.88,1.47-1.31c0.28-0.25,0.56-0.49,0.85-0.74
			c0.7-0.58,1.44-1.16,2.21-1.73c0.16-0.12,0.3-0.24,0.46-0.35c0.93-0.69,1.92-1.36,2.94-2.04c0.3-0.19,0.62-0.38,0.92-0.58
			c0.87-0.56,1.75-1.11,2.69-1.66c1.63-0.95,3.26-1.84,4.88-2.69c0.54-0.28,1.08-0.53,1.63-0.8c1.08-0.54,2.17-1.09,3.25-1.59
			c0.64-0.3,1.28-0.56,1.92-0.84c0.98-0.43,1.96-0.86,2.94-1.25c0.68-0.27,1.36-0.51,2.05-0.77c0.93-0.35,1.87-0.69,2.8-1
			c0.69-0.23,1.38-0.44,2.08-0.65c0.94-0.29,1.88-0.56,2.81-0.81c0.7-0.19,1.4-0.35,2.1-0.52c0.92-0.22,1.84-0.42,2.76-0.6
			c0.68-0.13,1.36-0.26,2.04-0.37c1.06-0.18,2.11-0.32,3.16-0.45c0.67-0.08,1.35-0.17,2.02-0.23c0.64-0.06,1.29-0.09,1.93-0.13
			c0.86-0.05,1.72-0.09,2.58-0.11c0.5-0.01,1-0.01,1.5-0.01c0.99,0.01,1.98,0.04,2.96,0.09c0.38,0.02,0.76,0.03,1.14,0.06
			c1.36,0.1,2.71,0.24,4.06,0.43c0.24,0.03,0.48,0.09,0.73,0.13c1.12,0.18,2.23,0.38,3.34,0.62c0.64,0.14,1.28,0.31,1.91,0.47
			c0.86,0.22,1.72,0.43,2.57,0.69c0.3,0.09,0.61,0.19,0.91,0.28c1.26,0.4,2.52,0.83,3.77,1.32c0.05,0.02,0.1,0.03,0.14,0.05
			c0.95,0.38,1.89,0.82,2.84,1.25c0.5,0.22,1,0.42,1.49,0.66c1.43,0.69,2.86,1.45,4.28,2.27c3.71,2.14,6.67,4.31,8.93,6.51
			c3.76,3.67,5.56,7.41,5.55,11.21v0c0,0,0,0,0,0L605.1,954.57z"/>
		<path class="st15" d="M647.35,955.27c0,0.86-0.06,1.71-0.15,2.57c0,0.04,0,0.09-0.01,0.13c-0.09,0.81-0.24,1.62-0.41,2.43
			c-0.06,0.26-0.13,0.53-0.19,0.79c-0.14,0.57-0.29,1.13-0.47,1.7c-0.09,0.29-0.19,0.58-0.29,0.88c-0.18,0.53-0.39,1.05-0.61,1.58
			c-0.14,0.34-0.28,0.68-0.43,1.02c-0.24,0.54-0.52,1.07-0.8,1.61c-0.16,0.31-0.31,0.62-0.48,0.93c-0.23,0.42-0.5,0.84-0.75,1.25
			c-0.3,0.5-0.6,0.99-0.93,1.49c-0.28,0.42-0.58,0.83-0.88,1.25c-0.35,0.49-0.7,0.98-1.08,1.47c-0.23,0.3-0.48,0.59-0.72,0.89
			c-0.7,0.86-1.44,1.73-2.22,2.59c-0.28,0.3-0.55,0.61-0.83,0.91c-1.04,1.09-2.12,2.19-3.3,3.27c-0.1,0.09-0.22,0.19-0.32,0.28
			c-1.06,0.97-2.18,1.94-3.34,2.9c-0.38,0.32-0.78,0.63-1.17,0.95c-0.99,0.8-2.02,1.59-3.09,2.38c-0.38,0.28-0.75,0.57-1.14,0.85
			c-1.44,1.04-2.92,2.08-4.48,3.11c-0.24,0.16-0.49,0.31-0.73,0.47c-1.35,0.88-2.75,1.77-4.19,2.64c-1.02,0.62-2.03,1.24-3.09,1.86
			l-7.69,4.47L603.24,1111l7.69-4.47c0.82-0.48,1.63-0.96,2.42-1.44c0.23-0.14,0.44-0.28,0.66-0.42c1.44-0.88,2.84-1.76,4.19-2.64
			c0.24-0.16,0.5-0.32,0.74-0.47c1.56-1.03,3.04-2.07,4.48-3.11c0.39-0.28,0.76-0.56,1.14-0.85c1.07-0.79,2.1-1.59,3.09-2.39
			c0.39-0.31,0.78-0.63,1.16-0.94c1.17-0.97,2.29-1.94,3.35-2.91c0.08-0.08,0.18-0.15,0.27-0.23c0.02-0.01,0.03-0.03,0.04-0.04
			c1.17-1.09,2.26-2.18,3.3-3.27c0.29-0.3,0.56-0.61,0.83-0.91c0.78-0.86,1.53-1.72,2.22-2.59c0.15-0.19,0.33-0.37,0.48-0.56
			c0.09-0.11,0.16-0.22,0.24-0.33c0.38-0.49,0.72-0.98,1.07-1.47c0.3-0.42,0.6-0.83,0.88-1.25c0.33-0.5,0.63-1,0.93-1.49
			c0.2-0.33,0.43-0.66,0.62-1c0.05-0.09,0.09-0.17,0.13-0.26c0.17-0.31,0.32-0.62,0.48-0.93c0.28-0.53,0.55-1.07,0.79-1.6
			c0.16-0.34,0.29-0.68,0.43-1.02c0.13-0.31,0.28-0.62,0.39-0.92c0.08-0.22,0.14-0.43,0.22-0.65c0.1-0.29,0.2-0.58,0.29-0.88
			c0.18-0.57,0.33-1.13,0.47-1.7c0.06-0.26,0.14-0.53,0.19-0.79c0.02-0.11,0.06-0.21,0.08-0.32c0.14-0.7,0.25-1.41,0.33-2.11
			c0.01-0.04,0-0.09,0.01-0.13c0.07-0.65,0.12-1.29,0.14-1.94c0.01-0.21,0.01-0.42,0.01-0.63l0,0L647.35,955.27z"/>
		<g>
			<polygon class="st16" points="603.55,1001.93 603.24,1111 573.12,1093.61 573.43,984.54 			"/>
		</g>
		<g class="st10">
			<defs>
				<path id="SVGID_3_" class="st10" d="M455.47,1027.23l-0.31,109.07c0.05-15.89-6.19-33.1-6.14-50.3l0.31-109.07
					C449.28,994.13,455.52,1011.34,455.47,1027.23z"/>
			</defs>
			<use xlink:href="#SVGID_3_"  style="overflow:visible;fill:#414042;"/>
			<clipPath id="SVGID_2_">
				<use xlink:href="#SVGID_3_"  style="overflow:visible;"/>
			</clipPath>
			<g class="st11">
				<path class="st15" d="M455.47,1027.23l-0.31,109.07c0.05-15.89-6.19-33.1-6.14-50.3l0.31-109.07
					C449.28,994.13,455.52,1011.34,455.47,1027.23"/>
			</g>
			
				<use xlink:href="#SVGID_3_"  style="overflow:visible;fill:none;stroke:#231F20;stroke-width:5.3521;stroke-linejoin:round;stroke-miterlimit:10;"/>
		</g>
		<path class="st15" d="M364.4,1027.29c-0.56,0.33-1.12,0.65-1.66,0.98c-0.12,0.07-0.22,0.14-0.34,0.21
			c-1.06,0.64-2.09,1.29-3.07,1.93c-0.08,0.05-0.16,0.11-0.24,0.17c-0.9,0.59-1.75,1.19-2.58,1.78c-0.26,0.18-0.51,0.37-0.76,0.55
			c-0.72,0.53-1.42,1.07-2.08,1.6c-0.15,0.12-0.31,0.24-0.46,0.37c-0.78,0.64-1.52,1.28-2.22,1.92c-0.06,0.05-0.13,0.11-0.18,0.16
			c-0.12,0.11-0.21,0.22-0.33,0.32c-0.53,0.5-1.04,1-1.51,1.5c-0.17,0.18-0.34,0.35-0.5,0.53c-0.59,0.64-1.14,1.27-1.64,1.9
			c-0.01,0.01-0.02,0.02-0.03,0.03c-0.16,0.2-0.29,0.4-0.44,0.6c-0.23,0.3-0.46,0.6-0.66,0.91c-0.15,0.23-0.28,0.45-0.43,0.68
			c-0.18,0.29-0.37,0.58-0.54,0.86c-0.01,0.02-0.03,0.04-0.04,0.07c-0.03,0.05-0.04,0.09-0.07,0.14c-0.41,0.74-0.76,1.49-1.05,2.23
			c-0.03,0.07-0.08,0.15-0.11,0.22c-0.01,0.04-0.02,0.08-0.03,0.12c-0.25,0.67-0.44,1.34-0.58,2.01c-0.01,0.06-0.04,0.12-0.05,0.17
			c-0.02,0.1-0.02,0.2-0.03,0.3c-0.1,0.54-0.16,1.07-0.19,1.61c0,0.1-0.03,0.19-0.03,0.29c0,0.11,0,0.22-0.01,0.33c0,0,0,0,0,0
			l-0.31,109.07c0-0.21,0.03-0.41,0.04-0.62c0.03-0.53,0.09-1.07,0.18-1.6c0.03-0.16,0.05-0.31,0.08-0.47
			c0.14-0.67,0.33-1.34,0.58-2.01c0.04-0.11,0.09-0.23,0.14-0.34c0.29-0.74,0.63-1.48,1.05-2.22c0.04-0.07,0.07-0.14,0.11-0.21
			c0.16-0.29,0.35-0.57,0.53-0.86c0.14-0.23,0.27-0.45,0.43-0.68c0.2-0.29,0.43-0.58,0.64-0.88c0.16-0.22,0.31-0.44,0.49-0.66
			c0.5-0.63,1.06-1.27,1.64-1.9c0.16-0.17,0.33-0.35,0.5-0.53c0.48-0.5,0.98-1,1.52-1.5c0.17-0.16,0.33-0.32,0.51-0.48
			c0.7-0.64,1.44-1.28,2.22-1.92c0.15-0.12,0.31-0.25,0.47-0.37c0.67-0.53,1.36-1.07,2.08-1.6c0.25-0.18,0.5-0.37,0.75-0.55
			c0.83-0.59,1.68-1.19,2.58-1.78c0.08-0.05,0.16-0.11,0.24-0.16c0.98-0.64,2.01-1.29,3.07-1.93c0.66-0.4,1.31-0.8,2-1.2
			l17.79-10.34l0.31-109.07L364.4,1027.29z"/>
		<path class="st16" d="M499.69,1033.02c-0.04,1.23-0.12,2.46-0.24,3.69c-0.02,0.21-0.03,0.42-0.05,0.62
			c-0.15,1.4-0.37,2.8-0.63,4.2c-0.08,0.45-0.18,0.89-0.28,1.34c-0.16,0.74-0.33,1.48-0.53,2.22c-0.13,0.49-0.27,0.98-0.42,1.46
			c-0.22,0.72-0.45,1.45-0.71,2.17c-0.18,0.51-0.36,1.01-0.55,1.52c-0.23,0.59-0.48,1.18-0.74,1.77c-0.23,0.54-0.47,1.08-0.73,1.61
			c-0.28,0.59-0.6,1.18-0.91,1.77c-0.28,0.53-0.57,1.07-0.88,1.6c-0.34,0.58-0.71,1.17-1.08,1.75c-0.34,0.53-0.67,1.06-1.04,1.59
			c-0.4,0.58-0.84,1.16-1.27,1.74c-0.38,0.51-0.77,1.03-1.18,1.54c-0.69,0.86-1.44,1.71-2.2,2.56c-0.3,0.33-0.58,0.67-0.89,1.01
			c-1.11,1.18-2.29,2.35-3.56,3.52c-1.11,1.02-2.28,2.04-3.52,3.06c-0.24,0.2-0.52,0.39-0.76,0.59c-1.02,0.82-2.07,1.63-3.18,2.44
			c-0.5,0.36-1.04,0.72-1.55,1.08c-0.92,0.64-1.84,1.29-2.82,1.93c-0.62,0.4-1.27,0.8-1.91,1.2c-1.16,0.73-2.32,1.46-3.57,2.19
			c-2.46,1.43-4.95,2.79-7.44,4.08c-0.14,0.07-0.28,0.15-0.42,0.22c-2.41,1.24-4.83,2.4-7.27,3.51c-0.23,0.11-0.46,0.22-0.7,0.32
			c-2.37,1.06-4.76,2.06-7.16,2.99c-0.3,0.12-0.6,0.24-0.9,0.35c-2.36,0.9-4.73,1.74-7.1,2.52c-0.43,0.14-0.86,0.29-1.29,0.42
			c-0.82,0.26-1.64,0.51-2.47,0.75c-0.64,0.19-1.28,0.38-1.92,0.56c-0.84,0.24-1.68,0.46-2.52,0.68c-0.63,0.17-1.25,0.34-1.88,0.49
			c-0.87,0.22-1.74,0.41-2.62,0.61c-0.6,0.14-1.2,0.28-1.8,0.41c-0.95,0.2-1.9,0.39-2.85,0.57c-0.52,0.1-1.04,0.21-1.56,0.3
			c-1.61,0.29-3.23,0.55-4.85,0.78c-0.45,0.06-0.89,0.11-1.34,0.17c-1.18,0.16-2.37,0.3-3.56,0.43c-0.44,0.05-0.88,0.08-1.32,0.13
			c-2.41,0.23-4.82,0.39-7.22,0.48c-0.36,0.01-0.73,0.02-1.09,0.03c-2.22,0.06-4.45,0.09-6.67,0.03c-0.06,0-0.11-0.01-0.17-0.01
			c-2.06-0.05-4.12-0.17-6.18-0.33c-0.41-0.03-0.81-0.06-1.22-0.09c-2.06-0.18-4.11-0.41-6.16-0.69c-0.37-0.05-0.75-0.11-1.12-0.17
			c-2.27-0.33-4.53-0.72-6.79-1.19c-0.62-0.13-1.25-0.28-1.87-0.42c-0.79-0.18-1.59-0.35-2.38-0.54c-0.66-0.16-1.32-0.34-1.97-0.52
			c-0.77-0.2-1.55-0.4-2.32-0.62c-0.36-0.1-0.71-0.22-1.07-0.32c-1.4-0.41-2.8-0.85-4.19-1.31c-0.52-0.17-1.04-0.35-1.55-0.53
			c-1.38-0.48-2.75-0.98-4.13-1.52c-0.37-0.14-0.74-0.28-1.11-0.42c-0.81-0.32-1.61-0.67-2.41-1.01c-0.61-0.26-1.23-0.51-1.84-0.78
			c-0.84-0.37-1.68-0.77-2.52-1.16c-0.57-0.27-1.14-0.52-1.71-0.79c-0.95-0.46-1.89-0.95-2.83-1.43c-0.46-0.24-0.91-0.46-1.37-0.7
			c-1.4-0.74-2.79-1.51-4.18-2.31c-12.5-7.22-20.79-14.67-25.24-22.21c-0.89-1.51-1.63-3.02-2.21-4.54
			c-0.59-1.52-1.02-3.03-1.31-4.55c-0.29-1.52-0.43-3.04-0.42-4.56l-0.31,109.07c-0.03,12.17,9.19,24.32,29.19,35.86
			c1.39,0.8,2.78,1.57,4.18,2.31c0.46,0.24,0.91,0.46,1.37,0.7c0.94,0.49,1.88,0.97,2.83,1.43c0.57,0.28,1.14,0.53,1.71,0.79
			c0.84,0.39,1.68,0.79,2.52,1.16c0.61,0.27,1.23,0.52,1.84,0.78c0.8,0.34,1.61,0.69,2.41,1.01c0.1,0.04,0.2,0.09,0.3,0.12
			c0.27,0.11,0.54,0.19,0.81,0.3c1.37,0.53,2.75,1.04,4.13,1.52c0.52,0.18,1.03,0.36,1.55,0.53c1.4,0.46,2.8,0.9,4.2,1.31
			c0.26,0.08,0.52,0.17,0.78,0.24c0.09,0.03,0.19,0.05,0.28,0.08c0.77,0.22,1.54,0.41,2.32,0.62c0.66,0.17,1.31,0.35,1.97,0.52
			c0.79,0.19,1.59,0.36,2.38,0.54c0.58,0.13,1.16,0.27,1.73,0.39c0.05,0.01,0.09,0.01,0.14,0.02c2.26,0.47,4.52,0.85,6.79,1.19
			c0.22,0.03,0.44,0.08,0.66,0.11c0.15,0.02,0.31,0.03,0.46,0.05c2.05,0.28,4.1,0.51,6.16,0.69c0.16,0.01,0.32,0.04,0.48,0.05
			c0.24,0.02,0.49,0.02,0.73,0.04c2.06,0.16,4.12,0.28,6.18,0.33c0.05,0,0.09,0.01,0.13,0.01c0.01,0,0.02,0,0.04,0
			c2.22,0.05,4.44,0.03,6.67-0.03c0.23-0.01,0.46,0,0.69,0c0.13,0,0.27-0.02,0.4-0.03c2.41-0.09,4.82-0.26,7.22-0.48
			c0.2-0.02,0.4-0.02,0.6-0.04c0.24-0.02,0.48-0.06,0.71-0.09c1.19-0.12,2.37-0.27,3.56-0.43c0.45-0.06,0.9-0.11,1.34-0.17
			c1.62-0.23,3.23-0.49,4.85-0.78c0.05-0.01,0.1-0.02,0.15-0.02c0.47-0.09,0.94-0.19,1.41-0.28c0.95-0.18,1.9-0.36,2.85-0.57
			c0.6-0.13,1.2-0.28,1.8-0.41c0.87-0.2,1.74-0.4,2.61-0.61c0.63-0.16,1.26-0.33,1.88-0.49c0.84-0.22,1.68-0.44,2.52-0.68
			c0.64-0.18,1.28-0.38,1.92-0.57c0.82-0.24,1.64-0.49,2.46-0.75c0.23-0.07,0.47-0.14,0.7-0.21c0.2-0.06,0.39-0.15,0.59-0.21
			c2.38-0.78,4.75-1.61,7.1-2.52c0.3-0.11,0.6-0.24,0.9-0.35c2.4-0.94,4.79-1.93,7.16-2.99c0.23-0.1,0.47-0.22,0.7-0.32
			c2.44-1.11,4.86-2.27,7.27-3.51c0.14-0.07,0.28-0.15,0.42-0.22c2.5-1.29,4.98-2.65,7.45-4.08c0.49-0.29,0.98-0.57,1.46-0.86
			c0.74-0.44,1.41-0.89,2.11-1.33c0.64-0.4,1.29-0.8,1.9-1.2c0.98-0.64,1.9-1.29,2.82-1.93c0.51-0.36,1.05-0.72,1.55-1.08
			c1.11-0.81,2.14-1.62,3.16-2.43c0.25-0.2,0.53-0.4,0.78-0.61c1.21-0.99,2.35-1.98,3.43-2.97c0.03-0.03,0.06-0.06,0.09-0.08
			c1.27-1.17,2.45-2.35,3.56-3.53c0.31-0.33,0.59-0.67,0.89-1c0.77-0.85,1.52-1.71,2.2-2.56c0.11-0.14,0.24-0.27,0.35-0.41
			c0.3-0.37,0.54-0.75,0.82-1.13c0.43-0.58,0.87-1.16,1.27-1.74c0.36-0.53,0.7-1.06,1.04-1.59c0.37-0.58,0.74-1.17,1.08-1.75
			c0.11-0.18,0.23-0.36,0.34-0.54c0.2-0.35,0.36-0.7,0.54-1.06c0.31-0.59,0.62-1.18,0.91-1.77c0.26-0.54,0.5-1.07,0.73-1.61
			c0.26-0.59,0.51-1.18,0.74-1.78c0.08-0.22,0.19-0.43,0.27-0.65c0.11-0.29,0.18-0.58,0.28-0.87c0.25-0.72,0.49-1.45,0.71-2.17
			c0.15-0.49,0.29-0.98,0.42-1.46c0.2-0.74,0.37-1.48,0.53-2.21c0.07-0.31,0.16-0.61,0.22-0.92c0.03-0.14,0.04-0.28,0.06-0.43
			c0.26-1.4,0.48-2.8,0.63-4.2c0.02-0.21,0.03-0.42,0.05-0.64c0.12-1.22,0.2-2.45,0.24-3.67c0.01-0.19,0.03-0.38,0.04-0.58
			c0.02-0.56,0.02-1.12,0.02-1.67l0.31-109.07C499.75,1031.53,499.72,1032.28,499.69,1033.02z"/>
		<g>
			<path class="st18" d="M618.5,919.71c43.12,24.9,35.58,52.85-7.26,77.75l-7.69,4.47l-30.12-17.39l9.3-5.41
				c25.46-14.8,30.68-29.13,7.89-42.29c-22.78-13.15-47.52-10.09-72.57,4.47c-63.47,36.88,26.08,95.61-53.54,141.88
				c-42.86,24.91-91.49,29.14-135.03,4.01c-43.53-25.13-35.99-53.09,6.87-78l16.16-9.39l29.7,17.14l-17.79,10.34
				c-25.46,14.8-29.82,29.6-7.05,42.75c22.79,13.16,48.32,10.57,73.79-4.22c63.06-36.65-26.08-95.15,53.55-141.43
				C528.35,899.02,575.77,895.04,618.5,919.71z"/>
		</g>
		<g>
			<polygon class="st16" points="720.01,1014.83 719.7,1123.9 667.21,1093.6 667.52,984.53 			"/>
		</g>
		<g>
			<polygon class="st15" points="832.95,1046.78 832.64,1155.86 803.93,1172.54 804.24,1063.47 			"/>
		</g>
		<g>
			<polygon class="st16" points="804.24,1063.47 803.93,1172.54 751.45,1142.23 751.76,1033.16 			"/>
		</g>
		<g>
			<polygon class="st18" points="832.95,1046.78 804.24,1063.47 751.76,1033.16 497.49,1180.92 465.75,1162.6 720.01,1014.83 
				667.52,984.53 696.23,967.85 			"/>
		</g>
		<g>
			<polygon class="st15" points="751.76,1033.16 751.45,1142.23 497.18,1290 497.49,1180.92 			"/>
		</g>
		<g>
			<polygon class="st16" points="497.49,1180.92 497.18,1290 465.44,1271.67 465.75,1162.6 			"/>
		</g>
		<g>
			<polygon class="st15" points="871.42,1110.21 871.11,1219.28 676.46,1296.1 676.77,1187.03 			"/>
		</g>
		<g>
			<polygon class="st15" points="645.63,1200.42 645.32,1309.49 577.33,1336.27 577.64,1227.2 			"/>
		</g>
		<g>
			<polygon class="st16" points="577.64,1227.2 577.33,1336.27 548.05,1319.36 548.36,1210.29 			"/>
		</g>
		<g>
			<polygon class="st16" points="717.64,1241.99 717.34,1351.07 645.32,1309.49 645.63,1200.42 			"/>
		</g>
		<g>
			<polygon class="st15" points="931.82,1103.87 931.51,1212.94 703.07,1408.86 703.37,1299.79 			"/>
		</g>
		<g>
			<polygon class="st16" points="703.37,1299.79 703.07,1408.86 671.32,1390.53 671.63,1281.46 			"/>
		</g>
		<path class="st18" d="M885.84,1077.32l-337.49,132.97l29.28,16.91l67.99-26.78l72.02,41.58l-46.01,39.47l31.75,18.33
			l228.45-195.92L885.84,1077.32z M740.24,1223.68l-63.47-36.65l194.65-76.82L740.24,1223.68z"/>
		<g>
			<polygon class="st15" points="1034.34,1163.06 1034.03,1272.13 939.33,1378.55 939.63,1269.48 			"/>
		</g>
		<g>
			<polygon class="st18" points="1153.56,1231.89 911.43,1302.37 809.97,1361.33 778.64,1343.24 880.1,1284.28 1001.4,1144.04 
				1034.34,1163.06 939.63,1269.48 1123.46,1214.51 			"/>
		</g>
		<polygon class="st15" points="911.43,1302.37 809.97,1361.33 809.66,1470.41 911.12,1411.45 1153.25,1340.96 1153.56,1231.89 		
			"/>
		<g>
			<polygon class="st16" points="809.97,1361.33 809.66,1470.41 778.33,1452.31 778.64,1343.24 			"/>
		</g>
		<path class="st15" d="M1276.2,1332.67c-1.41-0.82-2.84-1.57-4.28-2.27c-0.48-0.23-0.98-0.42-1.47-0.64
			c-0.93-0.42-1.87-0.86-2.81-1.24c-0.03-0.01-0.06-0.02-0.09-0.03c-0.1-0.04-0.19-0.07-0.29-0.11c-1.23-0.48-2.47-0.9-3.71-1.3
			c-0.31-0.1-0.63-0.2-0.95-0.3c-0.27-0.08-0.54-0.17-0.81-0.25c-0.58-0.17-1.17-0.28-1.76-0.43c-0.69-0.18-1.39-0.36-2.08-0.51
			c-0.19-0.04-0.37-0.1-0.56-0.14c-0.84-0.17-1.69-0.3-2.53-0.44c-0.38-0.06-0.76-0.14-1.14-0.2c-0.08-0.01-0.15-0.03-0.23-0.04
			c-1.23-0.17-2.46-0.31-3.7-0.41c-0.1-0.01-0.19-0.01-0.29-0.02c-0.35-0.03-0.7-0.03-1.06-0.06c-0.79-0.05-1.58-0.11-2.37-0.13
			c-0.28-0.01-0.56,0.01-0.84,0c-0.54-0.01-1.08,0-1.63,0.01c-0.5,0.01-0.99-0.01-1.49,0.01c-0.39,0.01-0.79,0.06-1.18,0.08
			c-0.72,0.04-1.43,0.09-2.15,0.15c-0.4,0.03-0.79,0.04-1.19,0.08c-0.34,0.03-0.69,0.11-1.03,0.14c-1.15,0.13-2.31,0.3-3.46,0.49
			c-0.41,0.07-0.82,0.1-1.23,0.17c-0.24,0.04-0.48,0.11-0.72,0.16c-0.99,0.19-1.99,0.42-2.99,0.65c-0.68,0.16-1.36,0.3-2.04,0.48
			c-1.07,0.28-2.15,0.6-3.22,0.93c-0.51,0.15-1.02,0.27-1.53,0.44c-0.1,0.03-0.21,0.08-0.31,0.11c-0.93,0.3-1.86,0.65-2.8,0.99
			c-0.7,0.25-1.39,0.49-2.09,0.76c-0.97,0.38-1.94,0.81-2.91,1.22c-0.66,0.28-1.32,0.54-1.98,0.84c-1.07,0.49-2.15,1.03-3.22,1.56
			c-0.55,0.27-1.11,0.52-1.66,0.81c-1.62,0.84-3.25,1.73-4.86,2.67l-149.56,86.92c-0.56,0.33-1.11,0.65-1.65,0.98
			c-0.12,0.07-0.23,0.15-0.35,0.22c-1.07,0.65-2.11,1.3-3.1,1.95c-0.05,0.03-0.09,0.06-0.13,0.09c-0.94,0.62-1.83,1.24-2.69,1.87
			c-0.26,0.18-0.5,0.37-0.75,0.55c-0.71,0.52-1.39,1.04-2.04,1.57c-0.18,0.14-0.36,0.28-0.53,0.42c-0.79,0.64-1.53,1.29-2.23,1.93
			c-0.05,0.04-0.1,0.09-0.15,0.13c-0.11,0.1-0.21,0.21-0.32,0.31c-0.55,0.51-1.07,1.03-1.56,1.54c-0.17,0.18-0.35,0.36-0.52,0.55
			c-0.59,0.64-1.16,1.29-1.67,1.93c0,0,0,0,0,0c-0.03,0.04-0.05,0.07-0.08,0.11c-0.38,0.48-0.73,0.96-1.06,1.45
			c-0.12,0.18-0.22,0.35-0.33,0.53c-0.22,0.34-0.44,0.68-0.64,1.02c-0.01,0.01-0.02,0.02-0.02,0.03c-0.02,0.03-0.02,0.06-0.04,0.08
			c-0.43,0.77-0.79,1.54-1.09,2.31c-0.03,0.08-0.08,0.16-0.11,0.23c-0.02,0.04-0.02,0.09-0.04,0.13c-0.25,0.68-0.45,1.37-0.59,2.05
			c-0.01,0.05-0.04,0.11-0.05,0.17c-0.02,0.1-0.02,0.2-0.03,0.29c-0.1,0.55-0.16,1.1-0.19,1.65c0,0.1-0.03,0.19-0.03,0.29
			c0,0.11-0.01,0.23-0.01,0.34l-0.31,109.07c0-0.21,0.03-0.42,0.04-0.62c0.03-0.55,0.09-1.1,0.19-1.65
			c0.03-0.15,0.05-0.31,0.08-0.46c0.15-0.68,0.34-1.36,0.59-2.05c0.04-0.12,0.1-0.25,0.15-0.37c0.3-0.77,0.66-1.54,1.09-2.31
			c0.02-0.04,0.04-0.08,0.06-0.12c0.19-0.33,0.41-0.67,0.62-1c0.12-0.18,0.22-0.37,0.35-0.55c0.32-0.48,0.68-0.96,1.05-1.44
			c0.03-0.04,0.06-0.08,0.09-0.12c0.51-0.64,1.07-1.29,1.67-1.93c0.17-0.18,0.34-0.36,0.52-0.55c0.49-0.51,1.01-1.03,1.56-1.54
			c0.16-0.15,0.3-0.29,0.47-0.44c0.7-0.64,1.45-1.29,2.24-1.93c0.17-0.14,0.35-0.28,0.53-0.42c0.65-0.52,1.33-1.05,2.04-1.57
			c0.25-0.18,0.5-0.37,0.75-0.55c0.86-0.62,1.75-1.24,2.69-1.87c0.05-0.03,0.09-0.06,0.13-0.09c0.99-0.65,2.03-1.3,3.1-1.95
			c0.66-0.4,1.31-0.8,2-1.2l149.56-86.92c1.62-0.94,3.24-1.83,4.86-2.67c0.55-0.29,1.11-0.53,1.66-0.81
			c1.07-0.53,2.14-1.07,3.22-1.56c0.66-0.3,1.32-0.56,1.98-0.84c0.97-0.42,1.94-0.84,2.91-1.22c0.7-0.27,1.4-0.5,2.09-0.76
			c0.93-0.34,1.87-0.69,2.8-0.99c0.61-0.2,1.22-0.36,1.83-0.55c1.07-0.32,2.15-0.65,3.22-0.93c0.68-0.18,1.36-0.32,2.04-0.48
			c1-0.23,1.99-0.46,2.99-0.65c0.65-0.12,1.3-0.22,1.95-0.33c1.16-0.19,2.31-0.35,3.46-0.49c0.74-0.08,1.48-0.16,2.21-0.22
			c0.72-0.06,1.43-0.11,2.15-0.15c0.89-0.05,1.78-0.08,2.66-0.09c0.54-0.01,1.09-0.02,1.63-0.01c1.07,0.01,2.14,0.06,3.21,0.12
			c0.35,0.02,0.71,0.03,1.06,0.06c1.41,0.11,2.82,0.27,4.22,0.47c0.38,0.06,0.76,0.14,1.14,0.2c1.03,0.17,2.07,0.36,3.09,0.58
			c0.7,0.15,1.39,0.34,2.08,0.51c0.86,0.22,1.71,0.43,2.56,0.68c0.32,0.09,0.63,0.2,0.95,0.3c1.25,0.4,2.48,0.82,3.71,1.3
			c0.1,0.04,0.19,0.07,0.29,0.11c0.97,0.38,1.94,0.83,2.9,1.27c0.49,0.22,0.98,0.41,1.47,0.64c1.44,0.7,2.87,1.45,4.28,2.26
			c10.21,5.9,15,12.11,14.98,18.48l0.31-109.07C1291.2,1344.78,1286.41,1338.56,1276.2,1332.67z"/>
		<path class="st16" d="M1334.78,1355.4c-0.01,0.11-0.01,0.21-0.02,0.32c-0.09,0.82-0.23,1.64-0.41,2.46
			c-0.05,0.26-0.13,0.51-0.19,0.77c-0.14,0.58-0.29,1.15-0.47,1.73c-0.09,0.3-0.2,0.6-0.3,0.9c-0.18,0.52-0.38,1.04-0.59,1.56
			c-0.15,0.36-0.29,0.71-0.45,1.07c-0.23,0.51-0.48,1.02-0.74,1.52c-0.18,0.35-0.35,0.69-0.54,1.04c-0.23,0.43-0.5,0.85-0.75,1.27
			c-0.31,0.51-0.61,1.02-0.95,1.53c-0.27,0.42-0.57,0.83-0.86,1.24c-0.36,0.5-0.72,1.01-1.1,1.51c-0.27,0.35-0.55,0.69-0.83,1.04
			c-0.7,0.87-1.45,1.73-2.23,2.59c-0.24,0.26-0.46,0.52-0.71,0.78c-1.02,1.09-2.11,2.17-3.27,3.25c-0.26,0.25-0.55,0.49-0.82,0.74
			c-0.89,0.81-1.81,1.61-2.78,2.41c-0.4,0.33-0.8,0.66-1.21,0.99c-0.98,0.79-2,1.57-3.05,2.35c-0.35,0.26-0.68,0.52-1.03,0.78
			c-1.4,1.02-2.86,2.03-4.38,3.04c-0.33,0.22-0.68,0.44-1.02,0.65c-1.23,0.8-2.5,1.6-3.8,2.4c-1,0.61-1.99,1.22-3.03,1.82
			l-146.34,85.04c-2.36,1.37-4.74,2.66-7.13,3.91c-0.2,0.11-0.41,0.22-0.61,0.32c-2.29,1.17-4.6,2.28-6.92,3.33
			c-0.31,0.14-0.62,0.29-0.93,0.42c-2.27,1.01-4.55,1.96-6.84,2.86c-0.37,0.14-0.73,0.29-1.1,0.43c-2.27,0.87-4.56,1.68-6.86,2.43
			c-0.54,0.18-1.07,0.35-1.61,0.52c-0.82,0.26-1.64,0.51-2.46,0.75c-0.67,0.2-1.33,0.39-2,0.58c-0.82,0.23-1.65,0.45-2.47,0.67
			c-0.67,0.17-1.33,0.35-2,0.51c-0.83,0.21-1.67,0.4-2.51,0.59c-0.66,0.15-1.32,0.3-1.98,0.44c-0.85,0.18-1.7,0.35-2.56,0.51
			c-0.63,0.12-1.26,0.25-1.9,0.36c-1.58,0.28-3.16,0.54-4.74,0.76c-0.06,0.01-0.12,0.02-0.18,0.03c-1.64,0.23-3.29,0.42-4.94,0.59
			c-0.33,0.03-0.65,0.06-0.98,0.09c-2.57,0.25-5.15,0.42-7.73,0.52c-0.28,0.01-0.56,0.01-0.83,0.02c-2.21,0.07-4.42,0.08-6.63,0.03
			c-0.17,0-0.34,0-0.51-0.01c-2.14-0.06-4.27-0.18-6.41-0.34c-0.43-0.03-0.86-0.07-1.29-0.1c-2.12-0.18-4.24-0.42-6.35-0.71
			c-0.34-0.05-0.68-0.1-1.01-0.15c-2.37-0.35-4.74-0.75-7.1-1.24c-0.54-0.11-1.08-0.25-1.63-0.37c-0.91-0.2-1.83-0.4-2.74-0.62
			c-0.61-0.15-1.23-0.32-1.84-0.48c-0.85-0.22-1.7-0.44-2.55-0.68c-0.32-0.09-0.64-0.19-0.96-0.29c-1.47-0.43-2.93-0.89-4.39-1.37
			c-0.52-0.17-1.04-0.35-1.56-0.53c-1.42-0.49-2.83-1.01-4.23-1.56c-0.37-0.14-0.74-0.28-1.11-0.42c-0.83-0.33-1.65-0.68-2.48-1.03
			c-0.61-0.26-1.22-0.5-1.82-0.77c-0.87-0.38-1.73-0.79-2.6-1.2c-0.56-0.26-1.12-0.51-1.68-0.78c-0.94-0.46-1.88-0.94-2.82-1.43
			c-0.48-0.25-0.96-0.48-1.43-0.73c-1.41-0.75-2.81-1.52-4.21-2.33c-20.21-11.67-29.59-24.15-29.55-36.66l-0.31,109.07
			c-0.04,12.51,9.34,24.99,29.55,36.66c1.4,0.81,2.8,1.58,4.21,2.33c0.48,0.25,0.95,0.48,1.43,0.73c0.94,0.48,1.88,0.97,2.82,1.43
			c0.56,0.27,1.12,0.52,1.68,0.78c0.86,0.4,1.73,0.81,2.6,1.2c0.61,0.27,1.22,0.51,1.82,0.77c0.83,0.35,1.65,0.7,2.48,1.03
			c0.1,0.04,0.2,0.09,0.3,0.13c0.27,0.11,0.54,0.19,0.81,0.3c1.41,0.55,2.82,1.07,4.24,1.56c0.52,0.18,1.04,0.36,1.56,0.53
			c1.46,0.49,2.93,0.95,4.4,1.37c0.24,0.07,0.47,0.15,0.71,0.22c0.08,0.02,0.16,0.04,0.24,0.06c0.85,0.24,1.71,0.46,2.56,0.68
			c0.61,0.16,1.22,0.33,1.83,0.48c0.91,0.22,1.83,0.42,2.75,0.62c0.52,0.11,1.03,0.24,1.55,0.35c0.02,0.01,0.05,0.01,0.07,0.01
			c2.36,0.49,4.73,0.89,7.1,1.24c0.21,0.03,0.42,0.08,0.63,0.11c0.13,0.02,0.26,0.03,0.38,0.04c2.11,0.29,4.23,0.53,6.35,0.71
			c0.19,0.02,0.39,0.05,0.58,0.07c0.24,0.02,0.48,0.02,0.71,0.04c2.13,0.16,4.27,0.29,6.41,0.34c0.05,0,0.09,0.01,0.14,0.01
			c0.13,0,0.25,0,0.38,0c2.21,0.05,4.42,0.03,6.63-0.03c0.19-0.01,0.39,0,0.59,0c0.08,0,0.17-0.01,0.25-0.02
			c2.58-0.09,5.16-0.27,7.73-0.52c0.18-0.02,0.36-0.02,0.54-0.04c0.14-0.01,0.29-0.04,0.43-0.05c1.65-0.17,3.29-0.36,4.94-0.59
			c0.06-0.01,0.12-0.02,0.18-0.03c1.58-0.22,3.17-0.48,4.74-0.76c0.15-0.03,0.31-0.05,0.46-0.07c0.48-0.09,0.95-0.19,1.43-0.29
			c0.85-0.16,1.71-0.33,2.56-0.51c0.66-0.14,1.32-0.29,1.98-0.44c0.84-0.19,1.67-0.38,2.51-0.59c0.67-0.16,1.33-0.34,2-0.51
			c0.82-0.22,1.65-0.44,2.47-0.67c0.67-0.19,1.33-0.38,2-0.58c0.82-0.24,1.64-0.49,2.46-0.75c0.36-0.11,0.71-0.21,1.07-0.33
			c0.18-0.06,0.36-0.13,0.54-0.19c2.3-0.75,4.58-1.56,6.86-2.43c0.37-0.14,0.73-0.29,1.1-0.43c2.29-0.9,4.58-1.84,6.84-2.86
			c0.31-0.14,0.62-0.28,0.93-0.42c2.32-1.06,4.63-2.16,6.92-3.33c0.2-0.1,0.41-0.22,0.61-0.32c2.4-1.24,4.78-2.54,7.13-3.91
			l146.34-85.04c0.78-0.46,1.56-0.91,2.32-1.37c0.25-0.15,0.47-0.3,0.71-0.45c1.31-0.8,2.57-1.6,3.8-2.4
			c0.33-0.22,0.69-0.44,1.02-0.65c1.52-1.01,2.98-2.02,4.38-3.04c0.36-0.26,0.69-0.52,1.03-0.78c1.05-0.78,2.07-1.57,3.05-2.35
			c0.41-0.33,0.81-0.66,1.21-0.99c0.96-0.8,1.89-1.6,2.78-2.41c0.21-0.19,0.44-0.37,0.64-0.56c0.06-0.06,0.12-0.12,0.18-0.18
			c1.16-1.08,2.25-2.16,3.27-3.25c0.25-0.26,0.47-0.52,0.71-0.78c0.79-0.86,1.53-1.73,2.23-2.59c0.15-0.18,0.32-0.36,0.47-0.54
			c0.13-0.16,0.24-0.33,0.36-0.5c0.39-0.5,0.75-1,1.1-1.51c0.29-0.41,0.59-0.83,0.86-1.24c0.34-0.51,0.64-1.02,0.95-1.53
			c0.18-0.29,0.38-0.59,0.55-0.88c0.07-0.13,0.13-0.26,0.2-0.39c0.19-0.35,0.36-0.69,0.54-1.04c0.26-0.51,0.51-1.02,0.74-1.52
			c0.16-0.36,0.31-0.71,0.45-1.07c0.11-0.26,0.23-0.52,0.33-0.78c0.1-0.26,0.17-0.52,0.26-0.78c0.1-0.3,0.21-0.6,0.3-0.9
			c0.18-0.58,0.33-1.15,0.47-1.73c0.06-0.26,0.13-0.51,0.19-0.77c0.02-0.08,0.04-0.16,0.06-0.25c0.15-0.74,0.26-1.47,0.34-2.21
			c0.01-0.11,0.01-0.21,0.02-0.32c0.06-0.59,0.11-1.19,0.13-1.78c0.01-0.21,0.01-0.43,0.01-0.64l0.31-109.07
			C1334.91,1353.78,1334.86,1354.59,1334.78,1355.4z"/>
		<g>
			<path class="st18" d="M1304.89,1316c43.93,25.36,37.62,54.03-5.63,79.16l-146.34,85.04c-42.84,24.9-92.72,28.88-136.65,3.52
				c-43.53-25.13-36.82-54.04,6.03-78.94l146.34-85.04C1211.88,1294.61,1261.35,1290.86,1304.89,1316z M1119.56,1462.81
				l149.56-86.92c25.48-14.81,30.27-29.84,7.08-43.23c-22.79-13.16-49.14-10.57-74.62,4.23l-149.56,86.92
				c-25.87,15.03-29.84,30.07-7.05,43.23C1068.16,1480.43,1093.69,1477.84,1119.56,1462.81"/>
		</g>
		<g>
			<polygon class="st15" points="1429.41,1391.15 1429.1,1500.22 1292.47,1579.62 1292.78,1470.55 			"/>
		</g>
		<polygon class="st15" points="1241.43,1500.39 1146.44,1555.6 1146.13,1664.67 1241.12,1609.46 1285.69,1602.88 1286,1493.81 		
			"/>
		<g>
			<polygon class="st16" points="1146.44,1555.6 1146.13,1664.67 1114.4,1646.35 1114.71,1537.28 			"/>
		</g>
		<g>
			<polygon class="st16" points="1256.71,1619.26 1256.4,1728.33 1223.84,1709.53 1224.15,1600.46 			"/>
		</g>
		<g>
			<polygon class="st18" points="1537.24,1453.41 1336.27,1486.77 1256.71,1619.26 1224.15,1600.46 1286,1493.81 1241.43,1500.39 
				1146.44,1555.6 1114.71,1537.28 1397.68,1372.83 1429.41,1391.15 1292.78,1470.55 1505.08,1434.84 			"/>
		</g>
		<polygon class="st15" points="1336.27,1486.77 1256.71,1619.26 1256.4,1728.33 1335.96,1595.84 1536.93,1562.48 1537.24,1453.41 
					"/>
		<g>
			<polygon class="st15" points="1596.04,1528.57 1595.73,1637.65 1401.1,1714.47 1401.41,1605.4 			"/>
		</g>
		<g>
			<polygon class="st15" points="1370.25,1618.78 1369.94,1727.85 1301.97,1754.64 1302.28,1645.57 			"/>
		</g>
		<g>
			<polygon class="st16" points="1302.28,1645.57 1301.97,1754.64 1272.67,1737.72 1272.98,1628.65 			"/>
		</g>
		<g>
			<polygon class="st16" points="1442.28,1660.37 1441.98,1769.44 1369.94,1727.85 1370.25,1618.78 			"/>
		</g>
		<path class="st18" d="M1610.47,1495.69l-337.49,132.97l29.3,16.92l67.97-26.79l72.03,41.59l-46.01,39.47l31.73,18.32
			l228.45-195.92L1610.47,1495.69z M1464.88,1642.05l-63.47-36.65l194.63-76.83L1464.88,1642.05z"/>
		<g>
			<polygon class="st15" points="1656.45,1522.23 1656.14,1631.3 1427.69,1827.22 1428,1718.15 			"/>
		</g>
		<g>
			<polygon class="st16" points="1428,1718.15 1427.69,1827.22 1395.96,1808.9 1396.27,1699.83 			"/>
		</g>
		<g>
			<polygon class="st15" points="1758.98,1581.43 1758.67,1690.5 1663.97,1796.92 1664.27,1687.85 			"/>
		</g>
		<g>
			<polygon class="st18" points="1878.18,1650.25 1636.05,1720.74 1534.6,1779.7 1503.28,1761.61 1604.74,1702.65 1726.02,1562.4 
				1758.98,1581.43 1664.27,1687.85 1848.08,1632.87 			"/>
		</g>
		<polygon class="st15" points="1636.05,1720.74 1534.6,1779.7 1534.29,1888.77 1635.74,1829.81 1877.88,1759.32 1878.18,1650.25 		
			"/>
		<g>
			<polygon class="st16" points="1534.6,1779.7 1534.29,1888.77 1502.97,1870.69 1503.28,1761.61 			"/>
		</g>
	</g>
</g>
</svg>
